<svg version="1.1" xmlns="http://www.w3.org/2000/svg" xmlns:xlink="http://www.w3.org/1999/xlink"><defs><path id="cancel-circle-small-a" d="M8978.72 14237.94V.3H.06v14237.64h8978.66z"/><filter id="up-small-a" filterUnits="userSpaceOnUse" x="6882.6" y="5789" width="215.7" height="122"><feColorMatrix values="1 0 0 0 0 0 1 0 0 0 0 0 1 0 0 0 0 0 1 0"/></filter></defs><symbol viewBox="0 0 269 270" id="shape-2-cogs-medium"><title>2-cogs-medium</title><path d="M100.7 249.14l3.31 10.56 17.42-5.48-3.26-10.38c-.14-.36-.24-.73-.29-1.11-.25-2.06.92-4.02 2.79-4.77 7.13-3.98 13.36-9.22 18.53-15.58.49-.68 1.17-1.22 1.96-1.53 1.21-.49 2.6-.46 3.76.15l10 5.21 8.44-16.19-8.99-4.69c-1.95-.48-3.38-2.22-3.42-4.28v-.14c-.01-.68.12-1.33.39-1.92 2.24-7.96 2.93-16.15 2.04-24.35-.18-1.66.58-3.29 1.98-4.22.54-.36 1.14-.6 1.75-.7l10.12-3.18-5.47-17.42-10.68 3.35c-1.58.5-3.3.09-4.49-1.07l-.09-.08c-.31-.31-.58-.67-.8-1.06-3.94-7.17-9.15-13.45-15.49-18.66-.01-.01-.03-.02-.04-.03-2.02-1.23-2.76-3.78-1.67-5.88l5.25-10.05-16.19-8.45-4.97 9.52c-.2.51-.49.99-.87 1.41l-.09.09c-1.4 1.53-3.66 1.88-5.45.91-7.59-2.09-15.52-2.78-23.35-2.02-2.08.52-4.26-.47-5.17-2.47-.08-.19-.16-.39-.21-.59h-.01l-3.37-10.72-17.42 5.47 3.4 10.81c.7 2.21-.4 4.59-2.54 5.49-.14.06-.28.11-.43.16-7.07 4-13.24 9.25-18.37 15.61-1.23 1.53-3.32 2.08-5.15 1.36-.28-.11-.54-.25-.79-.4l-9.6-5.02-8.45 16.2 10 5.21c1.23.64 2.1 1.82 2.35 3.18.16.91.05 1.83-.32 2.64-2.22 7.9-2.92 16.02-2.06 24.16.02.15.03.3.04.45.08 2.21-1.44 4.13-3.54 4.59l-10.34 3.25 5.48 17.42 10.18-3.2c1.75-.81 3.86-.42 5.19 1.06.26.29.48.61.66.95 3.89 7.09 9.02 13.31 15.25 18.49.31.16.61.35.88.58 1.62 1.35 2.08 3.66 1.1 5.53l-5.25 10.07 16.19 8.45 5.26-10.07c.79-1.52 2.35-2.45 4.07-2.42.76.01 1.48.22 2.12.58 7.59 2.08 15.53 2.76 23.37 1.98 1.57-.36 3.26.14 4.37 1.41.47.53.8 1.16.98 1.83zm.37 20.7c-1.92 0-3.69-1.23-4.29-3.15l-3.65-11.59c-7.11.4-14.19-.24-21.09-1.88l-5.61 10.76c-1.15 2.2-3.87 3.06-6.07 1.91l-24.17-12.61c-2.21-1.15-3.06-3.87-1.91-6.07l5.62-10.78c-5.32-4.74-9.87-10.18-13.59-16.23l-11.58 3.63c-2.36.75-4.89-.57-5.64-2.94L.92 194.88c-.75-2.37.57-4.89 2.94-5.64l11.59-3.64c-.4-7.1.23-14.16 1.88-21.09l-10.76-5.62c-2.2-1.15-3.06-3.86-1.91-6.07l12.61-24.17c1.15-2.2 3.87-3.06 6.07-1.91l10.78 5.63c4.74-5.32 10.18-9.88 16.24-13.6l-3.64-11.57c-.75-2.37.57-4.9 2.94-5.64l26.01-8.18c1.14-.35 2.37-.24 3.43.31s1.85 1.5 2.21 2.64l3.64 11.59c7.12-.4 14.2.23 21.1 1.88l5.61-10.76c.55-1.06 1.5-1.86 2.64-2.22 1.14-.35 2.37-.24 3.43.31l24.17 12.61c2.2 1.15 3.06 3.87 1.91 6.07l-5.62 10.77c5.31 4.74 9.87 10.18 13.59 16.24l11.57-3.64c2.37-.74 4.9.58 5.65 2.95l8.17 26c.74 2.38-.57 4.9-2.94 5.65l-11.59 3.64c.4 7.09-.23 14.16-1.88 21.09l10.76 5.61c1.06.56 1.85 1.51 2.21 2.64.36 1.14.25 2.38-.3 3.44l-12.61 24.17c-1.15 2.2-3.87 3.05-6.08 1.9l-10.77-5.62c-4.74 5.32-10.18 9.87-16.24 13.6l3.64 11.57c.74 2.37-.57 4.89-2.94 5.64l-26.01 8.17c-.45.14-.9.21-1.35.21z"/><path d="M89.05 159.36c-2.24 0-4.48.34-6.65 1.02-5.64 1.78-10.25 5.64-12.99 10.89-2.73 5.24-3.26 11.24-1.49 16.88 2.92 9.28 11.4 15.51 21.12 15.51 2.24 0 4.48-.35 6.64-1.03 11.65-3.66 18.15-16.11 14.49-27.76-2.92-9.28-11.4-15.51-21.12-15.51zm-.01 53.3c-13.67 0-25.61-8.77-29.71-21.81-2.49-7.94-1.75-16.37 2.1-23.75 3.85-7.37 10.34-12.81 18.28-15.3 3.04-.96 6.18-1.44 9.34-1.44 13.67 0 25.6 8.76 29.7 21.81 5.15 16.38-3.99 33.9-20.37 39.05-3.04.95-6.18 1.44-9.34 1.44zm114.62-91.95l1.31 7.17 11.48-2.1-1.28-7.02c-.09-.35-.14-.72-.14-1.09 0-2.05 1.38-3.82 3.28-4.36 5.58-2.28 10.61-5.54 14.98-9.72.57-.6 1.3-1.05 2.1-1.26 1.27-.33 2.64-.13 3.72.62l6.14 4.24 6.64-9.6-5.33-3.68c-1.82-.76-2.96-2.63-2.74-4.63l.01-.11c.07-.64.27-1.24.58-1.77 2.36-5.63 3.6-11.57 3.7-17.66.03-1.68.99-3.2 2.49-3.95.55-.28 1.14-.43 1.74-.47l6.77-1.24-2.1-11.48-7.27 1.33c-1.63.3-3.28-.31-4.32-1.6-.28-.35-.57-.81-.73-1.23-2.24-5.62-5.48-10.69-9.64-15.09-1.83-1.48-2.23-4.09-.89-6.03l4.27-6.18-9.61-6.63-3.97 5.76c-.26.46-.6.89-1.02 1.24-1.49 1.26-3.61 1.42-5.23.47-5.45-2.28-11.18-3.52-17.06-3.68-2.08.22-4.09-1.03-4.74-3.09-.06-.2-.11-.41-.14-.61h-.01l-1.33-7.31-11.48 2.1 1.35 7.37c.41 2.28-.97 4.51-3.2 5.14-.11.03-.21.06-.32.08-5.52 2.3-10.51 5.58-14.84 9.76-1.41 1.37-3.55 1.66-5.27.72-.25-.14-.48-.29-.7-.47l-5.82-4.02-6.64 9.6 6.14 4.24c1.15.79 1.86 2.06 1.94 3.45.05.89-.16 1.76-.6 2.51-2.35 5.62-3.6 11.54-3.7 17.62-.04 2.3-1.8 4.19-4.04 4.42l-6.96 1.27 2.1 11.48 6.83-1.25c1.82-.55 3.84.11 4.96 1.73.22.31.39.65.52 1 2.24 5.6 5.47 10.67 9.62 15.07.17.14.33.29.48.45 1.44 1.55 1.65 3.87.45 5.61l-4.27 6.19 9.6 6.63 4.27-6.19c.97-1.4 2.65-2.14 4.34-1.9.7.1 1.36.36 1.92.75 5.38 2.21 11.03 3.4 16.83 3.55 1.59-.14 3.18.58 4.11 1.96.39.58.63 1.23.72 1.89zm-2.31 16.9c-2.13 0-4.02-1.52-4.42-3.69l-1.51-8.23c-4.9-.4-9.71-1.44-14.35-3.1l-4.76 6.88c-.67.98-1.71 1.65-2.89 1.87-1.17.21-2.38-.05-3.37-.73l-17-11.74c-2.05-1.42-2.56-4.22-1.15-6.26l4.76-6.89c-3.19-3.76-5.86-7.89-7.97-12.34l-8.22 1.5c-2.44.45-4.79-1.17-5.23-3.62l-3.72-20.33c-.22-1.17.04-2.38.72-3.37.68-.98 1.72-1.65 2.89-1.86l8.24-1.51c.4-4.91 1.44-9.71 3.1-14.36l-6.88-4.75c-2.05-1.41-2.56-4.22-1.15-6.26l11.75-17.01c.68-.98 1.72-1.65 2.89-1.87 1.18-.21 2.39.05 3.37.73l6.89 4.76c3.76-3.2 7.89-5.86 12.34-7.97l-1.51-8.22c-.21-1.18.05-2.39.73-3.37.68-.98 1.72-1.65 2.89-1.87L198.12.28c2.44-.44 4.79 1.17 5.24 3.62l1.51 8.23c4.9.4 9.71 1.44 14.36 3.1l4.75-6.88c.67-.98 1.71-1.65 2.89-1.87 1.17-.21 2.38.05 3.37.73l17 11.74c.99.68 1.66 1.72 1.87 2.9.22 1.17-.04 2.38-.72 3.36l-4.76 6.89c3.19 3.76 5.86 7.89 7.97 12.34l8.22-1.5c1.17-.22 2.38.05 3.37.72.98.68 1.65 1.72 1.86 2.9l3.72 20.33c.45 2.44-1.17 4.79-3.61 5.24l-8.24 1.5c-.4 4.91-1.43 9.71-3.09 14.36l6.87 4.75c.99.68 1.66 1.72 1.87 2.89.22 1.18-.04 2.39-.72 3.37l-11.75 17.01c-.68.98-1.72 1.65-2.89 1.87-1.18.21-2.39-.05-3.37-.73l-6.89-4.76c-3.76 3.2-7.89 5.86-12.34 7.97l1.51 8.22c.21 1.18-.05 2.39-.73 3.37-.68.98-1.72 1.65-2.89 1.87l-20.33 3.72c-.28.05-.55.07-.82.07z"/><path d="M200.17 53.21c-.95 0-1.91.08-2.85.26-8.52 1.55-14.18 9.75-12.62 18.27 1.37 7.46 7.85 12.87 15.42 12.87.95 0 1.91-.08 2.85-.25 8.52-1.56 14.18-9.76 12.62-18.27-1.36-7.47-7.85-12.88-15.42-12.88zm-.05 40.4c-11.92 0-22.12-8.52-24.27-20.26-2.45-13.39 6.45-26.29 19.85-28.74 1.48-.27 2.98-.4 4.47-.4 11.92 0 22.13 8.52 24.27 20.26 2.45 13.39-6.45 26.29-19.85 28.74-1.48.27-2.98.4-4.47.4z"/></symbol><symbol viewBox="0 0 145 48" id="shape-NZ-made"><title>Slice 1</title><g fill-rule="evenodd"><path d="M72.964 37.892s3.833-27 19.333-26c15.5 1 30.5 20.5 32.333 35h-10.5s25.666-9 29-25.833C146.464 4.22 112.305 1.7 112.305 1.7s-22.674.35-31.174 9.184-8.16 27-8.16 27z" stroke="#FFF" stroke-width="2"/><path d="M9.282 15.5V6.162H7.294v5.866L2.968 6.162H.924V15.5h1.988V9.41l4.452 6.09h1.918zm8.496 0v-1.75h-4.62v-2.114h4.522v-1.75h-4.522V7.912h4.62v-1.75H11.17V15.5h6.608zm10.848 0l2.66-9.338h-2.24l-1.624 6.748-1.764-6.748h-1.554l-1.778 6.748-1.638-6.748h-2.226l2.674 9.338h2.114l1.624-6.412 1.638 6.412h2.114zM7.7 30.5v-1.75H3.192l4.41-5.992v-1.596H.588v1.75h4.41L.588 28.89v1.61H7.7zm8.16 0v-1.75h-4.62v-2.114h4.522v-1.75H11.24v-1.974h4.62v-1.75H9.252V30.5h6.608zm10.302 0l-3.598-9.338h-2.492L16.46 30.5h2.268l.588-1.582h4.004l.574 1.582h2.268zm-3.388-3.332h-2.912l1.456-4.018 1.456 4.018zM33.006 30.5v-1.75h-3.948v-7.588H27.07V30.5h5.936zm10.134 0l-3.598-9.338H37.05L33.438 30.5h2.268l.588-1.582h4.004l.574 1.582h2.268zm-3.388-3.332H36.84l1.456-4.018 1.456 4.018zM52.406 30.5v-9.338h-1.988v5.866l-4.326-5.866h-2.044V30.5h1.988v-6.09l4.452 6.09h1.918zm5.57 0c2.926 0 4.956-1.848 4.956-4.662s-2.03-4.676-4.956-4.676h-3.682V30.5h3.682zm0-1.75h-1.694v-5.838h1.694c1.918 0 2.926 1.274 2.926 2.926 0 1.582-1.078 2.912-2.926 2.912zM11.046 45.5v-9.338h-2.8l-2.268 5.642-2.268-5.642H.924V45.5h1.988v-6.538L5.544 45.5h.868l2.632-6.538V45.5h2.002zm10.596 0l-3.598-9.338h-2.492L11.94 45.5h2.268l.588-1.582H18.8l.574 1.582h2.268zm-3.388-3.332h-2.912l1.456-4.018 1.456 4.018zm7.978 3.332c2.926 0 4.956-1.848 4.956-4.662s-2.03-4.676-4.956-4.676H22.55V45.5h3.682zm0-1.75h-1.694v-5.838h1.694c1.918 0 2.926 1.274 2.926 2.926 0 1.582-1.078 2.912-2.926 2.912zM39.25 45.5v-1.75h-4.62v-2.114h4.522v-1.75H34.63v-1.974h4.62v-1.75h-6.608V45.5h6.608z"/></g></symbol><symbol viewBox="0 0 116 115" id="shape-add-member-small"><title>add-member-small</title><path d="M7.42 108.12h85.51v-5.458c0-5.83-4.74-10.766-10.56-11.002-.16-.006-.32-.024-.48-.055l-.87-.167c-.59-.12-1.23-.25-1.88-.387-3.81-.8-6.88-1.62-9.11-2.43-1.42-.51-2.52-1.02-3.36-1.56-.91-.58-1.87-1.21-2.72-1.85-.68-.5-1.24-.98-1.72-1.45-.38-.37-.71-.74-1-1.13-1.13-1.49-1.67-3.18-1.67-5.18 0-.84.14-1.74.43-2.76.24-.84.57-1.74 1.03-2.74.21-.46.43-.93.67-1.4.19-.38.34-.68.5-.97.05-.09.1-.17.15-.26.33-.51.65-1.03.96-1.56l.22-.38c.27-.47.53-.95.79-1.43l.11-.21c2.4-4.64 4.13-9.92 4.75-14.48l.01-.14c.05-.38.22-2.65.23-3.1v-6.87C69.41 31.14 61.27 23 51.26 23H49.1c-1.23 0-2.46.127-3.65.37-1.16.24-2.3.6-3.39 1.06-.27.117-.54.24-.8.366C35 27.8 30.95 34.22 30.95 41.12V48c.01.44.18 2.713.23 3.11 0 .01.01.1.01.113.62 4.57 2.35 9.847 4.75 14.49l.12.218c.25.48.51.96.77 1.43.01 0 .05.09.06.09l.17.3c.31.54.63 1.06.96 1.57.05.09.1.17.15.26.46.88.84 1.65 1.17 2.38.28.61.52 1.2.72 1.76.5 1.41.74 2.64.74 3.75 0 1.15-.17 2.17-.53 3.12-.81 2.17-2.4 3.57-3.86 4.65-.86.64-1.86 1.29-2.72 1.85-1.88 1.21-5.29 2.37-10.45 3.55-1.48.34-3.09.68-4.77 1-.16.03-.32.05-.48.06-2.46.1-4.84 1.05-6.72 2.67-.53.45-1.01.96-1.44 1.49-.88 1.1-1.53 2.33-1.93 3.66-.32 1.03-.48 2.1-.48 3.19v5.46zm88.76 6.5H4.17c-1.79 0-3.25-1.456-3.25-3.25v-8.708c0-1.725.26-3.434.76-5.076.64-2.122 1.68-4.082 3.07-5.826.68-.852 1.45-1.645 2.27-2.356 2.92-2.518 6.62-4.013 10.45-4.225 1.52-.3 2.98-.61 4.32-.91 5.91-1.36 7.83-2.33 8.38-2.68.78-.5 1.66-1.08 2.36-1.6 1.24-.93 1.54-1.4 1.65-1.71.08-.22.12-.5.12-.85 0-.2-.05-.67-.37-1.58-.14-.39-.31-.82-.51-1.26-.26-.58-.57-1.2-.93-1.9-.36-.55-.7-1.12-1.04-1.69l-.21-.38c-.35-.62-.65-1.16-.94-1.71l-.14-.26c-2.73-5.28-4.7-11.33-5.41-16.6 0-.02-.01-.11-.02-.13-.08-.63-.28-3.28-.28-3.98V41.1c0-9.383 5.49-18.1 13.98-22.204.36-.175.72-.34 1.09-.497 1.48-.64 3.04-1.12 4.62-1.45 1.62-.34 3.29-.51 4.96-.51h2.16c13.59 0 24.65 11.05 24.65 24.64v6.87c0 .69-.2 3.34-.28 3.95l-.02.15c-.71 5.27-2.69 11.32-5.42 16.6l-.09.17c-.33.63-.63 1.17-.94 1.71l-.25.44c-.34.57-.68 1.14-1.04 1.69-.11.22-.23.44-.34.67-.23.46-.42.84-.59 1.23-.31.69-.55 1.31-.7 1.83-.16.56-.18.87-.18.99 0 .73.16 1.01.36 1.27.1.13.22.27.37.41.26.26.6.54 1.04.87.7.52 1.58 1.1 2.36 1.59.23.15.81.47 2.04.91 1.93.69 4.79 1.45 8.26 2.18.62.13 1.23.25 1.79.37l.61.12c9.3.51 16.54 8.14 16.54 17.48v8.71c0 1.79-1.45 3.25-3.25 3.25zm16.33-91.38H80.93c-1.79 0-3.25-1.455-3.25-3.25s1.46-3.25 3.25-3.25h31.58c1.79 0 3.25 1.455 3.25 3.25s-1.46 3.25-3.25 3.25"/><path d="M96.72 39.027c-1.79 0-3.25-1.455-3.25-3.25V4.203c0-1.795 1.46-3.25 3.25-3.25 1.8 0 3.25 1.455 3.25 3.25v31.574c0 1.795-1.45 3.25-3.25 3.25"/></symbol><symbol viewBox="0 0 150 58" id="shape-branding"><title>Slice 1</title><g fill-rule="evenodd"><path d="M4.7 42.757H2.263l.13.13v2.087l-.13.13h2.43c.943 0 1.34-.49 1.34-1.174 0-.72-.397-1.173-1.33-1.173m-.01 3.565h-2.43l.13.13v2.57h-1.34v-7.484h3.65c1.71 0 2.697.997 2.697 2.392 0 1.34-.98 2.392-2.708 2.392M13.627 46.018l-.13-.12-.98-2.098-.183-.62h-.02l-.21.62-.98 2.097-.13.12h2.633zm2.8 3.002h-1.47l-.776-1.663.075-.12h-3.88l.074.12-.777 1.663h-1.47l3.493-7.483h1.238l3.492 7.483zM21.158 42.757h-2.3l.13.128v1.876l-.13.14h2.2c.997 0 1.477-.472 1.477-1.063 0-.774-.527-1.08-1.377-1.08m3.483 6.263h-1.505l-.997-1.977c-.314-.638-.795-.933-1.7-.933h-1.58l.13.13v2.78h-1.34v-7.483h3.51c1.45 0 2.744.74 2.744 2.3 0 .85-.628 1.543-1.32 1.857v.02c.258.1.58.405.784.793l1.275 2.513M32.827 49.02h-1.94l-3.695-3.78 3.612-3.694h1.903l-3.742 3.695v.02l3.862 3.76zm-7.057-7.483h1.34v7.483h-1.34v-7.483zM37.022 49.112c-1.237 0-2.52-.37-3.482-1.32l.96-.952c.915.795 1.6 1.054 2.486 1.054 1.366 0 1.885-.482 1.885-.953 0-.322-.295-.72-1.274-.96-.167-.045-1.22-.304-1.386-.35-1.35-.36-2.44-.85-2.44-2.06 0-1.136 1.054-2.126 3.16-2.126 1.256 0 2.3.416 3.13 1.257l-.958.96c-.573-.654-1.25-.996-2.163-.996-1.377 0-1.802.5-1.802.868 0 .352.34.592 1.645.933.156.047 1.025.268 1.2.314 1.543.378 2.255 1.155 2.255 2.107 0 1.144-.933 2.225-3.216 2.225M41.83 41.537h1.338v7.483h-1.34v-7.483zM48.093 42.757h-1.756l.13.128v4.786l-.13.13h1.802c2.022 0 2.345-1.108 2.345-2.52 0-1.406-.332-2.523-2.392-2.523m.138 6.263h-3.103v-7.483h3.058c3.123 0 3.667 2.023 3.667 3.742 0 1.726-.526 3.74-3.62 3.74M59.4 49.02h-5.958v-7.483h5.96v1.22h-4.75l.13.128v1.654l-.13.13h4.306v1.218h-4.306l.13.13v1.653l-.13.13h4.75v1.22M67.663 42.664c-1.683 0-2.375 1.136-2.375 2.66 0 1.48.692 2.57 2.375 2.57.304 0 .59-.038.84-.112l.185.02-.95-.953.81-.805 1.082 1.08-.01-.156c.278-.435.408-1.008.408-1.646 0-1.477-.676-2.66-2.365-2.66m3.852 6.356l-.804.804-1.127-1.127c-.535.267-1.18.415-1.93.415-2.448 0-3.732-1.552-3.732-3.788 0-2.235 1.285-3.88 3.733-3.88 2.467 0 3.74 1.636 3.74 3.88 0 1.08-.303 2.005-.904 2.67l1.025 1.026M79.748 45.574c0 2.254-1.082 3.538-3.4 3.538-2.32 0-3.41-1.266-3.41-3.538v-4.037h1.34v4.028c0 1.506.546 2.328 2.07 2.328 1.497 0 2.06-.822 2.06-2.328v-4.028h1.34v4.037M86.345 46.018l-.13-.12-.98-2.098-.183-.62h-.02l-.21.62-.98 2.097-.13.12h2.633zm2.8 3.002h-1.47l-.776-1.663.074-.12h-3.88l.073.12-.775 1.663h-1.47l3.493-7.483h1.237l3.493 7.483zM93.876 42.757h-2.3l.13.128v1.876l-.13.14h2.198c1 0 1.48-.472 1.48-1.063 0-.774-.528-1.08-1.378-1.08m3.483 6.263h-1.507l-.998-1.977c-.313-.638-.794-.933-1.7-.933h-1.58l.13.13v2.78h-1.34v-7.483h3.51c1.452 0 2.745.74 2.745 2.3 0 .85-.628 1.543-1.32 1.857v.02c.258.1.58.405.784.793l1.275 2.513M101.998 42.757h-2.3l.13.128v1.876l-.13.14h2.198c.998 0 1.48-.472 1.48-1.063 0-.774-.528-1.08-1.378-1.08m3.483 6.263h-1.505l-.998-1.977c-.313-.638-.794-.933-1.7-.933h-1.58l.13.13v2.78h-1.34v-7.483h3.51c1.452 0 2.745.74 2.745 2.3 0 .85-.628 1.543-1.32 1.857v.02c.258.1.58.405.784.793l1.275 2.513M106.656 41.537h1.34v7.483h-1.34v-7.483zM115.913 49.02h-5.96v-7.483h5.96v1.22h-4.75l.13.128v1.654l-.13.13h4.307v1.218h-4.306l.13.13v1.653l-.13.13h4.75v1.22M120.755 49.112c-1.238 0-2.522-.37-3.483-1.32l.96-.952c.916.795 1.6 1.054 2.486 1.054 1.367 0 1.885-.482 1.885-.953 0-.322-.296-.72-1.275-.96-.167-.045-1.22-.304-1.386-.35-1.35-.36-2.44-.85-2.44-2.06 0-1.136 1.054-2.126 3.16-2.126 1.257 0 2.3.416 3.132 1.257l-.96.96c-.573-.654-1.248-.996-2.162-.996-1.377 0-1.802.5-1.802.868 0 .352.342.592 1.645.933.157.047 1.025.268 1.2.314 1.544.378 2.255 1.155 2.255 2.107 0 1.144-.933 2.225-3.215 2.225M134.153 49.02h-5.524v-7.483h1.338v6.134l-.13.13h4.315v1.22M141.24 42.757h-2.66l.074.13v6.133h-1.34v-6.134l.074-.13h-2.66V41.54h6.512v1.22M145.473 42.757h-1.756l.13.128v4.786l-.13.13h1.802c2.022 0 2.345-1.108 2.345-2.52 0-1.406-.332-2.523-2.392-2.523m.138 6.263h-3.103v-7.483h3.058c3.122 0 3.666 2.023 3.666 3.742 0 1.726-.524 3.74-3.62 3.74M23.318 53.085H21.33l.042.082v4.69h-.82v-4.69l.048-.082h-1.995v-.758h4.713v.758M28.18 57.858h-.8V55.25c0-.58-.183-1.044-1.112-1.044-.697 0-1.236.396-1.236 1.133v2.518h-.8v-5.735h.8v1.898h.014c.293-.334.812-.532 1.317-.532 1.216 0 1.817.682 1.817 1.66v2.71M32.783 55.36l-.08-.083c-.124-.655-.534-1.08-1.272-1.08-.757 0-1.146.445-1.283 1.08l-.088.082h2.723zm.73.696h-3.46l.08.082c.124.67.554 1.08 1.333 1.08.45 0 .826-.165 1.167-.487l.547.548c-.485.444-1.06.65-1.714.65-1.482 0-2.165-.95-2.165-2.186 0-1.305.78-2.254 2.13-2.254 1.43 0 2.105.97 2.105 2.254 0 .102-.007.205-.02.314zM41.682 57.858h-.82v-2.3l.083-.082h-3.237l.08.082v2.3h-.818v-5.53h.82v2.308l-.082.082h3.237l-.082-.082v-2.308h.82v5.53M44.954 54.205c-.93 0-1.318.642-1.318 1.503 0 .846.396 1.502 1.318 1.502.93 0 1.318-.65 1.318-1.502 0-.854-.396-1.503-1.318-1.503m0 3.722c-1.42 0-2.117-.95-2.117-2.22 0-1.27.704-2.22 2.11-2.22 1.42 0 2.124.937 2.124 2.22 0 1.264-.716 2.22-2.116 2.22M54.057 57.858h-.8v-2.382c0-.772-.095-1.27-.797-1.27-.615 0-.923.504-.916 1.078v2.574h-.806v-2.54c0-.675-.137-1.112-.792-1.112-.526 0-.915.45-.915 1.085v2.568h-.805v-4.3h.806v.428h.008c.24-.3.65-.498 1.058-.498.547 0 .99.307 1.195.718h.015c.26-.41.737-.718 1.263-.718 1.004 0 1.496.65 1.496 1.83l-.007 2.54M58.668 55.36l-.083-.083c-.123-.655-.53-1.08-1.27-1.08-.757 0-1.147.445-1.283 1.08l-.09.082h2.726zm.73.696h-3.462l.083.082c.12.67.552 1.08 1.33 1.08.45 0 .826-.165 1.168-.487l.546.548c-.485.444-1.06.65-1.714.65-1.482 0-2.165-.95-2.165-2.186 0-1.305.778-2.254 2.13-2.254 1.428 0 2.103.97 2.103 2.254 0 .102-.006.205-.02.314zM64.732 54.205c-.93 0-1.317.642-1.317 1.503 0 .846.396 1.502 1.317 1.502.93 0 1.318-.65 1.318-1.502 0-.854-.396-1.503-1.318-1.503m0 3.722c-1.42 0-2.117-.95-2.117-2.22 0-1.27.704-2.22 2.11-2.22 1.42 0 2.125.937 2.125 2.22 0 1.264-.718 2.22-2.118 2.22M70.203 54.246h-1.338l.04.082v3.53h-.798v-3.53l.04-.082h-.553v-.69h.554l-.04-.082v-.055c.005-.847.524-1.332 1.433-1.332.24 0 .486.04.663.11v.71c-.17-.07-.403-.117-.594-.117-.48 0-.704.26-.704.684l-.04.082 1.337.007v.683M75.837 53.017c-1.31 0-1.837.93-1.837 2.11 0 1.154.533 2.042 1.837 2.042 1.318 0 1.837-.89 1.837-2.043 0-1.147-.52-2.11-1.837-2.11m0 4.91c-1.755 0-2.677-1.134-2.677-2.8s.922-2.868 2.677-2.868c1.762 0 2.677 1.194 2.677 2.867 0 1.666-.95 2.8-2.677 2.8M82.673 55.85c-.074 0-.265-.013-.368-.013-.2 0-.437 0-.683.014-.246.014-.505.048-.73.104-.41.102-.67.293-.67.62 0 .512.62.643 1.05.643.404 0 1.32-.09 1.32-.643v-.64l.08-.083zm.718 2.008h-.8v-.328h-.012c-.368.294-.84.404-1.305.404-.874 0-1.843-.328-1.843-1.36 0-1.345 1.755-1.427 2.84-1.427.11 0 .32.007.403.015l-.082-.082-.005-.082c-.04-.574-.5-.787-1.092-.787-.437 0-.93.098-1.306.412l-.524-.54c.58-.45 1.16-.587 1.83-.587.935 0 1.898.36 1.898 1.59v2.773zM90.582 57.858h-.8v-2.382c0-.772-.095-1.27-.798-1.27-.614 0-.922.504-.915 1.078v2.574h-.807v-2.54c0-.675-.136-1.112-.792-1.112-.525 0-.914.45-.914 1.085v2.568h-.806v-4.3h.806v.428h.007c.24-.3.65-.498 1.058-.498.548 0 .992.307 1.197.718h.013c.26-.41.738-.718 1.263-.718 1.004 0 1.496.65 1.496 1.83l-.008 2.54M94.953 55.85c-.075 0-.266-.013-.37-.013-.197 0-.436 0-.682.014-.244.014-.504.048-.73.104-.41.102-.67.293-.67.62 0 .512.623.643 1.053.643.403 0 1.318-.09 1.318-.643v-.64l.083-.083zm.717 2.008h-.8v-.328h-.013c-.368.294-.84.404-1.304.404-.874 0-1.844-.328-1.844-1.36 0-1.345 1.754-1.427 2.84-1.427.11 0 .32.007.403.015l-.082-.082-.006-.082c-.04-.574-.498-.787-1.092-.787-.438 0-.93.098-1.305.412l-.525-.54c.58-.45 1.16-.587 1.83-.587.935 0 1.898.36 1.898 1.59v2.773zM99.352 54.32H99.1c-.72-.006-1.27.39-1.27 1.415v2.123h-.8v-4.302h.8v.69h.012c.245-.47.76-.738 1.325-.738h.185v.813M104.125 57.858h-.8v-.463h-.012c-.315.34-.78.532-1.29.532-1.257 0-1.79-.662-1.79-1.715v-2.655h.8v2.63c0 .58.17 1.022 1.085 1.022.696 0 1.208-.382 1.208-1.113v-2.54h.8v4.3M110.005 57.927c-.908 0-1.843-.28-2.48-.942l.61-.588c.635.56 1.16.772 1.843.772 1.02 0 1.476-.377 1.476-.807 0-.307-.267-.628-1.012-.82-.116-.033-.895-.23-1.017-.266-1.004-.273-1.74-.635-1.74-1.482 0-.805.722-1.536 2.252-1.536.9 0 1.666.313 2.212.887l-.6.594c-.39-.457-.91-.723-1.613-.723-1.023 0-1.414.382-1.414.75 0 .343.342.54 1.277.793.117.028.765.205.895.24 1.114.28 1.598.846 1.598 1.522 0 .806-.642 1.605-2.288 1.605M116.104 57.415c-.465.355-.847.512-1.304.512-.827 0-1.304-.527-1.304-1.4v-2.2l.047-.08h-.54v-.69h.54l-.047-.082v-.635l.798-.43v1.065l-.04.082h1.352v.69h-1.352l.04.08v2.207c0 .45.212.676.54.676.266 0 .457-.082.737-.327l.534.532M118.822 54.205c-.93 0-1.318.642-1.318 1.503 0 .846.396 1.502 1.318 1.502.93 0 1.318-.65 1.318-1.502 0-.854-.396-1.503-1.318-1.503m0 3.722c-1.42 0-2.117-.95-2.117-2.22 0-1.27.704-2.22 2.11-2.22 1.42 0 2.124.937 2.124 2.22 0 1.264-.718 2.22-2.118 2.22M126.04 57.858h-.798v-2.594c0-.62-.184-1.058-1.113-1.058-.697 0-1.237.38-1.237 1.11v2.542h-.8v-4.3h.8v.463h.014c.293-.328.812-.532 1.317-.532 1.12 0 1.817.595 1.817 1.653v2.718M130.644 55.36l-.082-.083c-.123-.655-.532-1.08-1.27-1.08-.758 0-1.147.445-1.284 1.08l-.09.082h2.726zm.73.696h-3.46l.08.082c.124.67.553 1.08 1.333 1.08.45 0 .826-.165 1.167-.487l.547.548c-.484.444-1.06.65-1.713.65-1.482 0-2.165-.95-2.165-2.186 0-1.305.777-2.254 2.13-2.254 1.428 0 2.103.97 2.103 2.254 0 .102-.006.205-.02.314zM45.142.48c-1.912 0-3.165 1.514-4.22 1.702-.04.007-.075.01-.102.01-.533 0 1.45-1.317 1.367-1.328C42.07.848 41.95.84 41.833.84c-1.546 0-2.982 1.298-4.047 1.445-.046.007-.085.01-.118.01-.567 0 1.087-.97 1-.985-.032-.006-.066-.01-.102-.01-.74 0-2.57 1.156-3.117 1.28-.514.114-3.247.775-3.595.89-8.83 2.926-15.875 8.4-21.268 14.888-2.232 2.685-3.616 5.09-6.09 9.378-.493.854-3.228 6.24-3.384 7.29h9.33c.105 0 1.453-4.085 3.283-6.94C17.67 21.93 27.923 8.99 40.418 8.99c.088 0 .175 0 .262.003 8.585.124 15.5 3.504 23.622 8.398 12.892 7.768 24.014 13.833 32.5 16.63 3.833 1.26 10.76 2.38 18.03 2.38 5.57 0 11.342-.657 16.076-2.407 13.79-5.097 18.032-11.88 17.925-13.116-.073.052-6.29 6.936-22.046 10.582-3.408.81-6.42 1.226-9.912 1.226-1.47 0-3.027-.075-4.733-.224-5.083-.473-8.186-1.396-8.36-1.44-1.96-.503-4.665-1.438-8.12-2.9-4.56-1.932-8.524-4.138-12.373-6.476-.67-.407-2.525-1.718-3.192-2.127-7.648-4.684-14.735-9.918-23.3-13.632-1.01-.44-4.06-1.574-6.8-2.286-.285-.075-.566-.145-.84-.207-.515-.12.52-.52.023-.61-.013-.003-.026-.004-.04-.004-.1 0-.19.073-.31.144-.117.072-.262.143-.474.143-.07 0-.146-.007-.232-.026-1.232-.26.007-1.016-.023-1.025-.07-.022-.138-.03-.205-.03-.29 0-.55.175-.822.352-.273.178-.558.354-.896.354-.113 0-.232-.02-.36-.065-.465-.187 1.395-1.47 1.335-1.48-.1-.02-.203-.03-.306-.03-1.09 0-2.334.99-3.163 1.162-.545-.51 1.864-1.776 1.79-1.783-.113-.01-.224-.015-.33-.015"/><path d="M27.583 27.876l14.713-14.513 14.662 14.463.283-.287-14.944-14.743L27.3 27.59l.283.286M41.338 34.48h-8.274c-.224 0-.404-.184-.404-.41v-5.137c0-.227.18-.41.404-.41h8.274c.223 0 .404.183.404.41v5.136c0 .226-.18.41-.404.41"/><path d="M41.338 34.48v-.2h-8.274c-.11 0-.203-.093-.203-.21v-5.137c0-.12.095-.21.204-.21h8.274c.11 0 .202.09.202.21v5.136c0 .117-.093.21-.202.21v.4c.337 0 .604-.275.605-.61v-5.137c0-.336-.268-.612-.605-.613h-8.274c-.337 0-.604.277-.606.613v5.136c.002.335.27.61.606.61h8.274v-.2M51.55 30.854h-8.47c-.23 0-.415-.186-.415-.417V25.23c0-.23.186-.417.414-.417h8.47c.228 0 .413.186.413.416v5.207c0 .23-.185.417-.413.417"/><path d="M51.55 30.854v-.2h-8.47c-.118-.002-.214-.096-.214-.217V25.23c0-.122.096-.216.213-.216h8.47c.116 0 .212.094.212.215v5.207c0 .12-.096.215-.212.216v.403c.342 0 .615-.28.615-.62V25.23c0-.34-.273-.62-.615-.62h-8.47c-.343 0-.616.28-.617.62v5.207c0 .34.274.62.616.62h8.47v-.203M51.554 34.48h-8.462c-.226 0-.41-.18-.41-.403v-1.863c0-.222.184-.403.41-.403h8.462c.226 0 .41.182.41.404v1.863c0 .223-.184.402-.41.402"/><path d="M51.554 34.48v-.2h-8.462c-.117-.002-.21-.094-.21-.203v-1.863c0-.108.093-.2.21-.2h8.462c.117 0 .21.092.21.2v1.863c0 .11-.093.2-.21.202v.4c.335 0 .61-.266.61-.603v-1.863c0-.337-.275-.603-.61-.604h-8.462c-.335 0-.61.267-.612.604v1.863c0 .337.277.604.612.604h8.462v-.2M37.347 27.564h-4.452c-.12 0-.216-.185-.216-.415v-1.922c0-.23.095-.416.215-.416h4.452c.12 0 .216.186.216.416v1.92c0 .23-.097.416-.216.416"/><path d="M37.347 27.564v-.2h-4.452v.065l.043-.054-.043-.012v.065l.043-.054-.002-.002c-.017-.015-.058-.11-.056-.225v-1.922c0-.086.02-.164.04-.2l.014-.022.004-.005-.025-.026.015.033.01-.006-.025-.026.015.033-.033-.074v.08l.033-.006-.033-.074v.08h4.452v-.065l-.043.053.043.014v-.066l-.043.053.002.003c.017.015.058.112.055.225v1.92c.002.088-.02.164-.04.202l-.012.02-.004.006.025.027-.016-.033-.01.006.025.027-.016-.033.033.075v-.08l-.033.005.033.075v-.08.4c.083.002.16-.033.21-.077.08-.066.126-.15.16-.24.03-.09.047-.19.047-.3v-1.92c0-.143-.028-.275-.086-.387-.03-.055-.066-.107-.12-.152-.052-.043-.128-.077-.21-.077h-4.453c-.084 0-.16.035-.212.078-.08.067-.125.15-.158.24-.03.092-.048.193-.048.3v1.92c0 .145.03.276.086.388.03.056.067.11.12.152.053.044.128.08.212.078h4.452v-.202M41.597 27.564h-2.984c-.08 0-.144-.185-.144-.415v-1.922c0-.23.063-.416.143-.416h2.984c.08 0 .145.186.145.416v1.92c0 .23-.065.416-.145.416"/><path d="M41.597 27.564v-.2h-2.984v.122l.1-.082c-.003-.004-.036-.04-.1-.04v.122l.1-.082-.003.003.003-.002-.003.002.003-.002c-.013-.018-.044-.13-.043-.256v-1.922c0-.096.016-.182.03-.228l.012-.024.002-.005-.067-.047.045.068.022-.02-.067-.047.045.068-.08-.118v.142l.08-.023-.08-.118v.142h2.985v-.123l-.098.083c0 .004.034.04.097.04v-.122l-.098.083v-.002l-.002.003.002-.002-.002.003c.013.018.044.13.042.255v1.92c0 .097-.015.183-.03.23l-.01.024-.003.004.067.048-.045-.067-.023.02.067.047-.045-.067.077.118v-.14l-.078.022.077.118v-.14.4c.103 0 .176-.058.213-.105.057-.073.083-.147.104-.232.02-.084.03-.178.03-.28v-1.92c0-.134-.02-.256-.055-.36-.018-.054-.04-.102-.08-.15-.037-.047-.11-.106-.213-.107h-2.984c-.103.002-.174.06-.21.107-.06.073-.085.148-.106.233-.02.084-.03.177-.03.278v1.92c.002.136.018.257.054.362.02.052.042.1.082.15.037.047.108.106.21.106h2.985v-.202M.302 55.41H15.61v.403H.3v-.403zM134.038 55.41h15.307v.403h-15.307v-.403z"/></g></symbol><symbol viewBox="0 0 109 118" id="shape-calendar-small"><title>calendar-small</title><path d="M60.9 25.97H49.12c-1.8 0-3.25-1.454-3.25-3.25 0-1.794 1.45-3.25 3.25-3.25H60.9c1.8 0 3.25 1.456 3.25 3.25 0 1.796-1.45 3.25-3.25 3.25"/><path d="M104.79 117.217H4.24c-1.8 0-3.25-1.455-3.25-3.25V22.72c0-1.794 1.45-3.25 3.25-3.25H17.3c1.8 0 3.25 1.456 3.25 3.25 0 1.796-1.45 3.25-3.25 3.25H7.49v84.747h94.05V25.97h-8.91c-1.79 0-3.25-1.454-3.25-3.25 0-1.794 1.46-3.25 3.25-3.25h12.16c1.8 0 3.25 1.456 3.25 3.25v91.247c0 1.795-1.45 3.25-3.25 3.25"/><path d="M33.93 6.707c-1.48 0-2.68 1.203-2.68 2.683v16.548c0 1.48 1.2 2.685 2.68 2.685 1.48 0 2.69-1.204 2.69-2.685V9.39c0-1.48-1.21-2.683-2.69-2.683zm0 28.416c-5.06 0-9.18-4.12-9.18-9.185V9.39c0-5.064 4.12-9.183 9.18-9.183 5.07 0 9.19 4.12 9.19 9.183v16.548c0 5.065-4.12 9.185-9.19 9.185zM76.39 6.707c-1.48 0-2.68 1.203-2.68 2.683v16.548c0 1.48 1.2 2.685 2.68 2.685 1.48 0 2.68-1.204 2.68-2.685V9.39c0-1.48-1.2-2.683-2.68-2.683zm0 28.416c-5.07 0-9.18-4.12-9.18-9.185V9.39c0-5.064 4.11-9.183 9.18-9.183 5.06 0 9.18 4.12 9.18 9.183v16.548c0 5.065-4.12 9.185-9.18 9.185zM22.96 53.475h3.62v-3.622h-3.62v3.622zm6.87 6.5H19.71c-1.8 0-3.25-1.455-3.25-3.25v-10.12c0-1.797 1.45-3.252 3.25-3.252h10.12c1.79 0 3.25 1.455 3.25 3.25v10.122c0 1.795-1.46 3.25-3.25 3.25zm21.9-6.5h3.63v-3.622h-3.63v3.622zm6.88 6.5H48.48c-1.79 0-3.25-1.455-3.25-3.25v-10.12c0-1.797 1.46-3.252 3.25-3.252h10.13c1.79 0 3.25 1.455 3.25 3.25v10.122c0 1.795-1.46 3.25-3.25 3.25zm21.9-6.5h3.62v-3.622h-3.62v3.622zm6.87 6.5H77.26c-1.79 0-3.25-1.455-3.25-3.25v-10.12c0-1.797 1.46-3.252 3.25-3.252h10.12c1.8 0 3.25 1.455 3.25 3.25v10.122c0 1.795-1.45 3.25-3.25 3.25zm-64.42 12.74h3.62v-3.62h-3.62v3.62zm6.87 6.5H19.71c-1.8 0-3.25-1.455-3.25-3.25v-10.12c0-1.796 1.45-3.25 3.25-3.25h10.12c1.79 0 3.25 1.454 3.25 3.25v10.12c0 1.795-1.46 3.25-3.25 3.25zm21.9-6.5h3.63v-3.62h-3.63v3.62zm6.88 6.5H48.48c-1.79 0-3.25-1.455-3.25-3.25v-10.12c0-1.796 1.46-3.25 3.25-3.25h10.13c1.79 0 3.25 1.454 3.25 3.25v10.12c0 1.795-1.46 3.25-3.25 3.25zm21.9-6.5h3.62v-3.62h-3.62v3.62zm6.87 6.5H77.26c-1.79 0-3.25-1.455-3.25-3.25v-10.12c0-1.796 1.46-3.25 3.25-3.25h10.12c1.8 0 3.25 1.454 3.25 3.25v10.12c0 1.795-1.45 3.25-3.25 3.25zm-64.42 12.74h3.62v-3.62h-3.62v3.62zm6.87 6.5H19.71c-1.8 0-3.25-1.455-3.25-3.25v-10.12c0-1.796 1.45-3.25 3.25-3.25h10.12c1.79 0 3.25 1.454 3.25 3.25v10.12c0 1.795-1.46 3.25-3.25 3.25zm21.9-6.5h3.63v-3.62h-3.63v3.62zm6.88 6.5H48.48c-1.79 0-3.25-1.455-3.25-3.25v-10.12c0-1.796 1.46-3.25 3.25-3.25h10.13c1.79 0 3.25 1.454 3.25 3.25v10.12c0 1.795-1.46 3.25-3.25 3.25zm21.9-6.5h3.62v-3.62h-3.62v3.62zm6.87 6.5H77.26c-1.79 0-3.25-1.455-3.25-3.25v-10.12c0-1.796 1.46-3.25 3.25-3.25h10.12c1.8 0 3.25 1.454 3.25 3.25v10.12c0 1.795-1.45 3.25-3.25 3.25z"/></symbol><symbol viewBox="0 0 117 116" id="shape-cancel-circle-small"><title>Fill 460</title><g transform="translate(-1546 -239)" fill-rule="evenodd"><mask id="cancel-circle-small-b"><use xlink:href="#cancel-circle-small-a"/></mask><path d="M1622.87 320.205c-.83 0-1.66-.318-2.3-.953l-38.36-38.362c-1.27-1.27-1.27-3.327 0-4.597 1.27-1.27 3.33-1.27 4.59 0l38.37 38.363c1.27 1.27 1.27 3.328 0 4.596-.64.635-1.47.953-2.3.953" mask="url(#cancel-circle-small-b)"/><path d="M1584.51 320.205c-.84 0-1.67-.318-2.3-.953-1.27-1.268-1.27-3.326 0-4.596l38.36-38.363c1.27-1.27 3.33-1.27 4.6 0 1.27 1.27 1.27 3.328 0 4.597l-38.37 38.362c-.63.635-1.46.953-2.29.953" mask="url(#cancel-circle-small-b)"/><path d="M1604.69 245.818c-28.26 0-51.25 22.99-51.25 51.244 0 28.256 22.99 51.243 51.25 51.243 28.25 0 51.24-22.987 51.24-51.243 0-28.255-22.99-51.244-51.24-51.244zm0 108.987c-31.84 0-57.75-25.903-57.75-57.743 0-31.84 25.91-57.744 57.75-57.744s57.74 25.904 57.74 57.744-25.9 57.743-57.74 57.743z" mask="url(#cancel-circle-small-b)"/></g></symbol><symbol viewBox="0 0 231 271" id="shape-completed-form-medium"><title>completed-form-medium</title><path d="M225.1 71.597h-62.6c-2.48 0-4.5-2.015-4.5-4.5V4.5c0-2.486 2.02-4.5 4.5-4.5 2.49 0 4.5 2.014 4.5 4.5v58.097h58.1c2.48 0 4.5 2.014 4.5 4.5 0 2.485-2.02 4.5-4.5 4.5"/><path d="M9 262.124h212.05V68.994L161.05 9H9v253.124zm216.55 9H4.5c-2.48 0-4.5-2.015-4.5-4.5V4.5C0 2.015 2.02 0 4.5 0h158.42c1.19 0 2.34.474 3.18 1.318l62.63 62.63c.84.843 1.32 1.988 1.32 3.18v199.496c0 2.485-2.02 4.5-4.5 4.5z"/><path d="M101.99 119H45.5c-2.48 0-4.5-2.015-4.5-4.5s2.02-4.5 4.5-4.5h56.49c2.48 0 4.5 2.015 4.5 4.5s-2.02 4.5-4.5 4.5m82.99 0H128.5c-2.49 0-4.5-2.015-4.5-4.5s2.01-4.5 4.5-4.5h56.48c2.49 0 4.5 2.015 4.5 4.5s-2.01 4.5-4.5 4.5m-82.99 22H45.5c-2.48 0-4.5-2.014-4.5-4.5 0-2.485 2.02-4.5 4.5-4.5h56.49c2.48 0 4.5 2.015 4.5 4.5 0 2.486-2.02 4.5-4.5 4.5m82.99 0H128.5c-2.49 0-4.5-2.014-4.5-4.5 0-2.485 2.01-4.5 4.5-4.5h56.48c2.49 0 4.5 2.015 4.5 4.5 0 2.486-2.01 4.5-4.5 4.5m-82.99 22H45.5c-2.48 0-4.5-2.014-4.5-4.5 0-2.485 2.02-4.5 4.5-4.5h56.49c2.48 0 4.5 2.015 4.5 4.5 0 2.486-2.02 4.5-4.5 4.5m82.99 0H128.5c-2.49 0-4.5-2.014-4.5-4.5 0-2.485 2.01-4.5 4.5-4.5h56.48c2.49 0 4.5 2.015 4.5 4.5 0 2.486-2.01 4.5-4.5 4.5m-82.99 22H45.5c-2.48 0-4.5-2.015-4.5-4.5 0-2.486 2.02-4.5 4.5-4.5h56.49c2.48 0 4.5 2.014 4.5 4.5 0 2.485-2.02 4.5-4.5 4.5m82.99 0H128.5c-2.49 0-4.5-2.015-4.5-4.5 0-2.486 2.01-4.5 4.5-4.5h56.48c2.49 0 4.5 2.014 4.5 4.5 0 2.485-2.01 4.5-4.5 4.5"/></symbol><symbol viewBox="0 0 100 117" id="shape-completed-form-small"><title>completed-form-small</title><path d="M96.106 33.496H70.024c-1.795 0-3.25-1.455-3.25-3.25V4.164c0-1.795 1.455-3.25 3.25-3.25 1.794 0 3.25 1.455 3.25 3.25v22.832h22.832c1.795 0 3.25 1.455 3.25 3.25s-1.455 3.25-3.25 3.25"/><path d="M7.254 110.132h85.6V31.605l-24.19-24.19H7.254V110.13zm88.852 6.5H4.003c-1.795 0-3.25-1.455-3.25-3.25V4.164c0-1.795 1.455-3.25 3.25-3.25H70.01c.87 0 1.69.342 2.3.95l26.1 26.097c.61.61.95 1.44.95 2.3v83.13c0 1.8-1.45 3.25-3.25 3.25z"/><path d="M44.676 55.66H21.14c-1.794 0-3.25-1.455-3.25-3.25s1.456-3.25 3.25-3.25h23.536c1.795 0 3.25 1.455 3.25 3.25s-1.455 3.25-3.25 3.25m34.782 0H55.923c-1.795 0-3.25-1.455-3.25-3.25s1.455-3.25 3.25-3.25h23.535c1.794 0 3.25 1.455 3.25 3.25s-1.456 3.25-3.25 3.25M44.676 68.094H21.14c-1.794 0-3.25-1.455-3.25-3.25s1.456-3.25 3.25-3.25h23.536c1.795 0 3.25 1.455 3.25 3.25s-1.455 3.25-3.25 3.25m34.782 0H55.923c-1.795 0-3.25-1.455-3.25-3.25s1.455-3.25 3.25-3.25h23.535c1.794 0 3.25 1.455 3.25 3.25s-1.456 3.25-3.25 3.25M44.676 80.527H21.14c-1.794 0-3.25-1.455-3.25-3.25s1.456-3.25 3.25-3.25h23.536c1.795 0 3.25 1.455 3.25 3.25s-1.455 3.25-3.25 3.25m34.782 0H55.923c-1.795 0-3.25-1.455-3.25-3.25s1.455-3.25 3.25-3.25h23.535c1.794 0 3.25 1.455 3.25 3.25s-1.456 3.25-3.25 3.25"/></symbol><symbol viewBox="0 0 373 439" id="shape-completed-form"><title>completed-form</title><path d="M366.726 113.34H264.568c-3.038 0-5.5-2.47-5.5-5.5V5.68c0-3.04 2.462-5.5 5.5-5.5 3.036 0 5.5 2.46 5.5 5.5v96.66h96.658c3.038 0 5.5 2.46 5.5 5.5 0 3.03-2.462 5.5-5.5 5.5"/><path d="M11.48 427.97h349.746v-317.8l-98.99-98.99H11.48v416.79zm355.246 11H5.98c-3.038 0-5.5-2.47-5.5-5.5V5.68c0-3.04 2.462-5.5 5.5-5.5h258.535c1.458 0 2.857.58 3.89 1.61L370.615 104c1.03 1.03 1.61 2.43 1.61 3.89v325.58c0 3.03-2.46 5.5-5.5 5.5z"/><path d="M165.285 190.65H73.103c-3.038 0-5.5-2.46-5.5-5.5s2.462-5.5 5.5-5.5h92.182c3.038 0 5.5 2.46 5.5 5.5s-2.462 5.5-5.5 5.5m136.235 0h-92.183c-3.038 0-5.5-2.46-5.5-5.5s2.462-5.5 5.5-5.5h92.182c3.03 0 5.5 2.46 5.5 5.5s-2.47 5.5-5.5 5.5m-136.24 35.63H73.1c-3.04 0-5.5-2.46-5.5-5.5 0-3.03 2.46-5.5 5.5-5.5h92.18c3.04 0 5.5 2.47 5.5 5.5 0 3.04-2.46 5.5-5.5 5.5m136.236 0h-92.184c-3.038 0-5.5-2.46-5.5-5.5 0-3.03 2.462-5.5 5.5-5.5h92.182c3.034 0 5.5 2.47 5.5 5.5 0 3.04-2.466 5.5-5.5 5.5M165.28 261.92H73.1c-3.04 0-5.5-2.47-5.5-5.5 0-3.04 2.46-5.5 5.5-5.5h92.18c3.04 0 5.5 2.46 5.5 5.5 0 3.03-2.46 5.5-5.5 5.5m136.236 0h-92.183c-3.038 0-5.5-2.47-5.5-5.5 0-3.04 2.462-5.5 5.5-5.5h92.182c3.034 0 5.5 2.46 5.5 5.5 0 3.03-2.466 5.5-5.5 5.5M165.28 297.55H73.1c-3.04 0-5.5-2.46-5.5-5.5s2.46-5.5 5.5-5.5h92.18c3.04 0 5.5 2.46 5.5 5.5s-2.46 5.5-5.5 5.5m136.237 0h-92.183c-3.038 0-5.5-2.46-5.5-5.5s2.462-5.5 5.5-5.5h92.182c3.034 0 5.5 2.46 5.5 5.5s-2.466 5.5-5.5 5.5"/></symbol><symbol viewBox="0 0 276 278" id="shape-customer-support-medium"><title>customer-support-medium</title><path d="M121.24 268.348h34.77v-20.324c-.04-.4-.03-.81.05-1.216l.02-.12c.39-2.194 2.35-3.75 4.53-3.7 13.05-2.728 25.33-7.832 36.51-15.183.74-.658 1.67-1.064 2.67-1.14 1.31-.1 2.6.375 3.53 1.304l14.72 14.72 24.58-24.58-13.69-13.7c-1.9-.99-2.84-3.19-2.23-5.26l.06-.23c.21-.7.58-1.33 1.06-1.84 7.52-11.45 12.69-24.04 15.37-37.44.32-1.65 1.54-2.97 3.15-3.44.68-.2 1.38-.23 2.05-.11h19.96v-34.76h-20.68c-1.66 0-3.18-.91-3.96-2.36l-.1-.18c-.21-.4-.36-.82-.45-1.26-2.65-13.19-7.72-25.6-15.07-36.9-.14-.12-.28-.26-.4-.4-1.56-1.79-1.46-4.47.21-6.14l14.8-14.8-24.58-24.58-14.24 14.24c-.36.47-.81.88-1.34 1.18l-.16.09c-1.89 1.08-4.26.66-5.66-.97-11.01-7.17-23.08-12.17-35.91-14.88-2.36.1-4.38-1.61-4.66-3.94l-.02-.15c-.04-.32-.05-.63-.02-.95V9h-34.76v20.906c0 2.32-1.76 4.258-4.07 4.48-.24.022-.48.026-.71.01-13.22 2.786-25.63 8.007-36.91 15.527-1.64 1.09-3.79.992-5.32-.24-.27-.212-.5-.45-.71-.71l-14.32-14.32-24.58 24.58L49.46 73.96c.98.98 1.45 2.36 1.28 3.735-.12.97-.55 1.864-1.21 2.556-7.47 11.38-12.62 23.88-15.31 37.18-.03.18-.06.35-.11.52-.6 2.16-2.68 3.54-4.85 3.3H9V156h19.78c2.05-.442 4.16.593 5.05 2.536l.04.1c.21.465.34.954.39 1.448 2.66 13.05 7.68 25.33 14.95 36.524.33.282.63.615.87.996 1.14 1.78.89 4.116-.6 5.612l-14.82 14.82 24.58 24.582 14.82-14.82c1.21-1.208 2.99-1.627 4.61-1.085.81.273 1.52.766 2.04 1.405 11.12 7.223 23.31 12.237 36.26 14.915 1.67.073 3.2 1.056 3.89 2.646l.05.1c.34.78.45 1.62.33 2.44v20.12zm39.27 9h-43.77c-2.48 0-4.5-2.015-4.5-4.5v-21.64c-12.24-2.86-23.83-7.67-34.53-14.332l-15.29 15.29c-1.76 1.758-4.61 1.758-6.36 0L25.11 221.22c-.84-.843-1.32-1.988-1.32-3.18 0-1.195.48-2.34 1.32-3.183l15.31-15.308c-6.65-10.71-11.45-22.3-14.3-34.55H4.5c-2.48 0-4.5-2.02-4.5-4.5v-43.76c0-2.49 2.02-4.5 4.5-4.5h21.64C29 99.99 33.81 88.4 40.48 77.7l-15.3-15.29c-.84-.844-1.31-1.99-1.31-3.183 0-1.193.47-2.338 1.31-3.18L56.13 25.1c1.76-1.756 4.61-1.756 6.36 0L77.8 40.41c10.71-6.653 22.3-11.45 34.55-14.3V4.5c0-2.486 2.01-4.5 4.5-4.5h43.76c2.49 0 4.5 2.014 4.5 4.5v21.64c12.25 2.86 23.83 7.668 34.54 14.332l15.29-15.29c1.75-1.758 4.6-1.758 6.36 0l30.95 30.945c.84.844 1.31 1.988 1.31 3.182 0 1.19-.47 2.33-1.31 3.18L236.94 77.8c6.65 10.706 11.45 22.297 14.3 34.545h21.61c2.49 0 4.5 2.015 4.5 4.5v43.764c0 2.48-2.01 4.5-4.5 4.5h-21.64c-2.86 12.24-7.67 23.83-14.33 34.53l15.29 15.29c1.76 1.76 1.76 4.6 0 6.36l-30.95 30.94c-1.75 1.75-4.6 1.75-6.36 0l-15.31-15.31c-10.71 6.65-22.3 11.45-34.54 14.3v21.61c0 2.48-2.02 4.5-4.5 4.5z"/><path d="M138.27 100c-21.1 0-38.27 17.168-38.27 38.27 0 21.103 17.17 38.272 38.27 38.272s38.27-17.17 38.27-38.27c0-21.104-17.17-38.272-38.27-38.272zm0 85.542c-26.07 0-47.27-21.206-47.27-47.27C91 112.205 112.2 91 138.27 91c26.06 0 47.27 21.206 47.27 47.27 0 26.066-21.21 47.272-47.27 47.272z"/></symbol><symbol viewBox="0 0 270 269" id="shape-desktop-medium"><title>desktop-medium</title><path d="M29.58 9.54c-11.19 0-20.29 9.1-20.29 20.28v153.07c0 11.18 9.1 20.28 20.29 20.28h210.43c11.18 0 20.28-9.1 20.28-20.28V29.82c0-11.18-9.1-20.28-20.28-20.28H29.58zm210.43 202.63H29.58c-16.15 0-29.29-13.14-29.29-29.28V29.82C.29 13.68 13.43.54 29.58.54h210.43c16.14 0 29.28 13.14 29.28 29.28v153.07c0 16.14-13.14 29.28-29.28 29.28z"/><path d="M45.81 30.53c-6.09 0-11.05 4.96-11.05 11.05v103.47c0 6.09 4.96 11.04 11.05 11.04h177.96c6.09 0 11.05-4.95 11.05-11.04V41.58c0-6.09-4.96-11.05-11.05-11.05H45.81zm177.96 134.56H45.81c-11.05 0-20.05-8.99-20.05-20.04V41.58c0-11.06 9-20.05 20.05-20.05h177.96c11.06 0 20.05 8.99 20.05 20.05v103.47c0 11.05-8.99 20.04-20.05 20.04zm-123.05 94.23h71.94c-9.84-12.73-16.67-29.04-19.66-47.15h-32.62c-2.99 18.11-9.82 34.42-19.66 47.15zm81.87 9h-91.8c-1.82 0-3.46-1.1-4.16-2.78-.69-1.68-.31-3.61.98-4.9 12.87-12.89 21.55-31.91 24.43-53.56.3-2.24 2.2-3.91 4.46-3.91h40.38c2.25 0 4.16 1.67 4.46 3.91 2.88 21.65 11.55 40.67 24.43 53.56 1.29 1.29 1.67 3.22.97 4.9-.69 1.68-2.33 2.78-4.15 2.78z"/></symbol><symbol viewBox="0 0 100 117" id="shape-document-small"><title>document-small</title><path d="M74.264 35.256h-48.63c-1.796 0-3.25-1.455-3.25-3.25s1.454-3.25 3.25-3.25h48.63c1.795 0 3.25 1.455 3.25 3.25s-1.455 3.25-3.25 3.25m0 26.917h-48.63c-1.796 0-3.25-1.455-3.25-3.25 0-1.796 1.454-3.25 3.25-3.25h48.63c1.795 0 3.25 1.454 3.25 3.25 0 1.795-1.455 3.25-3.25 3.25m0 26.917h-48.63c-1.796 0-3.25-1.456-3.25-3.25 0-1.797 1.454-3.252 3.25-3.252h48.63c1.795 0 3.25 1.455 3.25 3.25 0 1.796-1.455 3.25-3.25 3.25"/><path d="M6.99 110.238h85.916V7.148H6.99v103.09zm89.17 6.5H3.74c-1.794 0-3.25-1.455-3.25-3.25V3.898c0-1.794 1.456-3.25 3.25-3.25h92.42c1.79 0 3.25 1.456 3.25 3.25v109.59c0 1.795-1.46 3.25-3.25 3.25z"/></symbol><symbol viewBox="0 0 88 89" id="shape-down-small"><title>down-small</title><path d="M43.998 56.78L21.873 32.223h44.25l-22.125 24.56"/><path d="M26.496 34.276l17.502 19.432 17.51-19.432h-35.01zm17.502 24.56c-.584 0-1.135-.248-1.53-.68l-22.116-24.56c-.552-.605-.683-1.47-.354-2.21.33-.743 1.07-1.22 1.875-1.22h44.25c.814 0 1.546.476 1.875 1.218.337.74.197 1.607-.345 2.21l-22.125 24.56c-.387.433-.946.68-1.53.68z"/></symbol><symbol viewBox="0 0 70 70" id="shape-drop-down-small"><title>Slice 2</title><path d="M15.084 23.36l19.99 22.203 19.99-22.204h-39.98zm19.99 28.944c-.765 0-1.497-.324-2.013-.893L7.01 22.47c-.715-.794-.898-1.933-.466-2.91.44-.972 1.405-1.6 2.47-1.6h52.12c1.064 0 2.028.628 2.47 1.603.43.975.25 2.115-.467 2.91l-26.06 28.94c-.507.57-1.238.895-2.003.895z" fill-rule="evenodd"/></symbol><symbol viewBox="0 0 153 28" id="shape-eforms-branding"><title>eforms-branding</title><path d="M23.158 19.02H8.018c.136 1.214.463 2.117.983 2.71.73.854 1.69 1.28 2.86 1.28.75 0 1.45-.185 2.12-.556.41-.235.85-.65 1.32-1.243l7.44.69c-1.13 1.98-2.51 3.4-4.12 4.26-1.61.86-3.91 1.29-6.92 1.29-2.61 0-4.66-.37-6.16-1.1-1.5-.73-2.74-1.9-3.72-3.5-.99-1.61-1.48-3.5-1.48-5.66 0-3.08.99-5.57 2.96-7.47C5.27 7.81 8 6.86 11.47 6.86c2.82 0 5.05.423 6.68 1.28 1.64.85 2.88 2.09 3.73 3.71.86 1.62 1.28 3.73 1.28 6.325v.853zm-7.68-3.617c-.15-1.46-.543-2.505-1.18-3.135-.637-.63-1.475-.947-2.514-.947-1.2 0-2.158.48-2.876 1.43-.457.6-.748 1.48-.872 2.66h7.44zM27.292-.2h20.78v5.844H35.736v4.75h10.54v5.492h-10.54V27h-8.442V-.2zM50 17.202c0-3.006 1.015-5.483 3.043-7.43 2.03-1.95 4.77-2.923 8.22-2.923 3.946 0 6.927 1.14 8.943 3.43 1.62 1.84 2.43 4.11 2.43 6.81 0 3.03-1.004 5.51-3.014 7.45-2.01 1.93-4.79 2.9-8.34 2.9-3.167 0-5.728-.81-7.682-2.41-2.4-1.99-3.6-4.6-3.6-7.83zm7.57-.018c0 1.756.356 3.055 1.068 3.896.71.842 1.605 1.263 2.68 1.263 1.09 0 1.983-.415 2.682-1.243.7-.83 1.048-2.16 1.048-3.99 0-1.707-.352-2.978-1.057-3.813-.7-.835-1.57-1.252-2.61-1.252-1.1 0-2.01.424-2.72 1.27-.72.848-1.07 2.138-1.07 3.87zm18.905-9.89h7.07v3.228c.68-1.397 1.38-2.36 2.105-2.885.724-.526 1.617-.788 2.68-.788 1.114 0 2.333.34 3.656 1.04l-2.337 5.38c-.9-.38-1.6-.56-2.12-.56-.99 0-1.76.41-2.3 1.22-.78 1.15-1.17 3.3-1.17 6.45V27h-7.59V7.295zm18.867 0h7.05v2.876c1.015-1.2 2.038-2.052 3.07-2.56 1.034-.507 2.28-.76 3.74-.76 1.57 0 2.814.278 3.73.835.915.556 1.663 1.385 2.245 2.486 1.187-1.28 2.27-2.16 3.247-2.62.977-.46 2.183-.69 3.618-.69 2.115 0 3.766.63 4.954 1.89 1.187 1.26 1.78 3.22 1.78 5.89V27h-7.57V15.774c0-.89-.172-1.552-.52-1.985-.506-.68-1.137-1.02-1.89-1.02-.892 0-1.61.32-2.154.96-.544.64-.816 1.67-.816 3.1V27h-7.57V16.146c0-.866-.05-1.454-.15-1.763-.16-.495-.438-.894-.834-1.197-.396-.303-.86-.455-1.39-.455-.867 0-1.578.33-2.135.99-.557.66-.835 1.73-.835 3.23V27h-7.57V7.295zm36.735 14.25l7.496-.705c.31.89.742 1.52 1.3 1.91.555.38 1.297.57 2.225.57 1.015 0 1.8-.22 2.357-.65.433-.32.65-.73.65-1.21 0-.55-.285-.97-.854-1.26-.4-.21-1.49-.47-3.24-.78-2.62-.46-4.44-.89-5.46-1.27-1.02-.39-1.88-1.05-2.58-1.98-.7-.93-1.04-1.99-1.04-3.18 0-1.3.38-2.42 1.13-3.36.76-.94 1.8-1.64 3.12-2.11 1.32-.46 3.1-.7 5.33-.7 2.35 0 4.09.18 5.21.54 1.12.36 2.06.91 2.81 1.67.75.75 1.37 1.77 1.87 3.06l-7.16.7c-.19-.63-.49-1.1-.93-1.39-.59-.4-1.31-.6-2.15-.6-.85 0-1.47.15-1.86.45-.39.3-.58.67-.58 1.1 0 .48.25.84.75 1.09.5.25 1.57.47 3.23.67 2.51.28 4.38.68 5.6 1.18 1.23.51 2.16 1.23 2.81 2.17.65.94.98 1.97.98 3.1 0 1.14-.34 2.24-1.03 3.32-.68 1.08-1.77 1.93-3.24 2.57-1.48.64-3.49.95-6.04.95-3.6 0-6.17-.51-7.69-1.54-1.53-1.03-2.51-2.49-2.94-4.38z" fill-rule="evenodd"/></symbol><symbol viewBox="0 0 24 16" id="shape-envelope"><title>Slice 1</title><path d="M1.01 1.868h21.078v12.98H1.008V1.868zm21.078 0l-9.64 6.987c-.5.365-1.297.365-1.798 0L1.01 1.867h21.078z"/></symbol><symbol viewBox="0 0 14 27" id="shape-facebook"><title>Artboard 1</title><path d="M9.315 8.847V6.52c0-1.212.128-1.867 2.06-1.867h2.59V0h-4.14C4.85 0 3.1 2.26 3.1 6.046v2.8H0V13.5h3.1V27h6.215V13.5h4.138L14 8.847H9.315z" fill-rule="evenodd"/></symbol><symbol viewBox="0 0 116 103" id="shape-file-forms-small"><title>file-forms-small</title><path d="M112.545 102.863H3.985c-1.796 0-3.25-1.455-3.25-3.25V62.73c0-1.794 1.454-3.25 3.25-3.25 1.794 0 3.25 1.456 3.25 3.25v33.632h102.06V62.73c0-1.794 1.455-3.25 3.25-3.25s3.25 1.456 3.25 3.25v36.883c0 1.795-1.455 3.25-3.25 3.25M58.302 46.498c-.83 0-1.657-.314-2.292-.944L43.04 32.656c-1.273-1.263-1.28-3.322-.014-4.595 1.266-1.27 3.323-1.28 4.596-.01l10.668 10.6 10.604-10.66c1.265-1.27 3.323-1.28 4.596-.01 1.273 1.27 1.28 3.33.013 4.6L60.607 45.54c-.635.64-1.47.958-2.305.958"/><path d="M58.315 46.26c-1.794 0-3.25-1.456-3.25-3.25V3.546c0-1.795 1.456-3.25 3.25-3.25 1.795 0 3.25 1.455 3.25 3.25V43.01c0 1.794-1.455 3.25-3.25 3.25M39.098 62.137c-.213 0-.43-.022-.646-.065l-17.93-3.62c-1.76-.352-2.898-2.067-2.543-3.827.35-1.76 2.06-2.898 3.82-2.543l14.74 2.976 2.97-14.745c.35-1.758 2.07-2.897 3.83-2.542 1.76.36 2.9 2.07 2.54 3.83l-3.62 17.93c-.31 1.55-1.67 2.61-3.19 2.61"/><path d="M39.027 61.99c-1.367 0-2.64-.87-3.088-2.238-.1-.274-7.33-21.363-28.62-25.973-1.76-.38-2.87-2.11-2.49-3.87.38-1.76 2.11-2.87 3.86-2.49 25.04 5.42 33.09 29.29 33.42 30.3.55 1.7-.38 3.54-2.08 4.09-.34.11-.68.16-1.01.16m38.4.14c-1.52 0-2.87-1.07-3.18-2.61l-3.61-17.9c-.36-1.76.78-3.48 2.54-3.83 1.76-.36 3.47.78 3.83 2.54l2.97 14.74 14.75-2.97c1.76-.36 3.48.78 3.83 2.54.36 1.76-.78 3.47-2.54 3.83l-17.93 3.62c-.21.04-.43.06-.64.06"/><path d="M77.502 61.99c-.333 0-.673-.052-1.007-.162-1.707-.555-2.64-2.39-2.083-4.096.33-1.013 8.38-24.885 33.416-30.305 1.755-.38 3.484.735 3.864 2.49.38 1.753-.735 3.483-2.49 3.862-21.428 4.63-28.54 25.75-28.61 25.96-.447 1.37-1.72 2.24-3.09 2.24"/></symbol><symbol viewBox="0 0 437 388" id="shape-file-forms"><title>file-forms</title><path d="M430.81 387.87H5.597c-3.038 0-5.5-2.46-5.5-5.5V237.91c0-3.04 2.462-5.5 5.5-5.5s5.5 2.46 5.5 5.5v138.96H425.31V237.91c0-3.04 2.46-5.5 5.5-5.5s5.5 2.46 5.5 5.5v144.46c0 3.04-2.46 5.5-5.5 5.5M218.35 167.1c-1.45 0-2.85-.57-3.88-1.6l-50.8-50.51c-2.16-2.14-2.17-5.62-.02-7.78 2.14-2.15 5.62-2.16 7.77-.02l46.91 46.63 46.63-46.9c2.14-2.16 5.63-2.17 7.78-.02 2.16 2.14 2.17 5.62.02 7.78l-50.51 50.8c-1.03 1.03-2.42 1.62-3.88 1.62h-.02"/><path d="M218.4 166.16c-3.03 0-5.5-2.46-5.5-5.5V6.1c0-3.04 2.47-5.5 5.5-5.5 3.04 0 5.5 2.46 5.5 5.5v154.56c0 3.04-2.46 5.5-5.5 5.5m-75.274 62.19c-.36 0-.727-.03-1.094-.11l-70.227-14.17c-2.978-.6-4.904-3.5-4.304-6.48.61-2.98 3.51-4.9 6.48-4.3l64.84 13.08 13.09-64.83c.6-2.98 3.5-4.91 6.48-4.31 2.98.6 4.91 3.51 4.3 6.48l-14.17 70.23c-.52 2.61-2.82 4.41-5.38 4.41"/><path d="M142.855 227.78c-2.315 0-4.47-1.48-5.227-3.8-.09-.27-7.443-22.29-25.616-46.33-24.187-32-55.07-52.25-91.794-60.2-2.968-.64-4.854-3.57-4.212-6.54.643-2.97 3.57-4.86 6.54-4.21 49.2 10.65 80.714 41.03 98.485 64.64 19.2 25.5 26.75 48.27 27.06 49.23.94 2.89-.63 5.99-3.52 6.93-.56.19-1.14.28-1.7.28m150.43.57c-2.56 0-4.86-1.8-5.38-4.41l-14.18-70.23c-.6-2.97 1.33-5.88 4.31-6.48 2.98-.6 5.88 1.33 6.48 4.31l13.08 64.83 64.84-13.08c2.98-.6 5.88 1.32 6.48 4.3.6 2.98-1.33 5.88-4.31 6.48l-70.22 14.17c-.37.08-.74.11-1.1.11"/><path d="M293.55 227.78c-.56 0-1.14-.09-1.7-.28-2.89-.94-4.47-4.04-3.53-6.93.32-.96 7.87-23.73 27.06-49.23 17.77-23.61 49.28-53.99 98.48-64.64 2.97-.65 5.9 1.24 6.54 4.21.65 2.97-1.24 5.9-4.21 6.54-87.94 19.04-117.12 105.66-117.41 106.53-.75 2.32-2.91 3.8-5.23 3.8"/></symbol><symbol viewBox="0 0 145 31" id="shape-formtab-branding"><title>formtab-branding</title><path d="M0 2.308h15.04v3.025H3.647v9.28H14.17v2.984H3.647v12.636H0V2.308m21.09 17.94c0 4.392 2.487 7.708 6.05 7.708 3.48 0 6.09-3.275 6.09-7.79 0-3.398-1.697-7.666-6.007-7.666-4.268 0-6.132 3.977-6.132 7.748m15.88-.207c0 7.42-5.18 10.65-9.99 10.65-5.38 0-9.61-3.97-9.61-10.31 0-6.67 4.43-10.6 9.94-10.6 5.76 0 9.66 4.19 9.66 10.28m4.6-3.6c0-2.36-.04-4.39-.16-6.26h3.19l.17 3.98h.13c.91-2.69 3.15-4.39 5.59-4.39.38 0 .67.04 1 .09v3.44c-.37-.08-.74-.08-1.24-.08-2.57 0-4.39 1.91-4.89 4.64-.08.5-.12 1.12-.12 1.7v10.69h-3.65v-13.8m13.72-.83c0-2.11-.08-3.77-.16-5.43h3.19l.17 3.28h.13c1.12-1.91 2.99-3.69 6.34-3.69 2.69 0 4.76 1.66 5.64 4.02h.09c.63-1.16 1.45-1.99 2.28-2.61 1.2-.91 2.49-1.41 4.4-1.41 2.69 0 6.63 1.74 6.63 8.7v11.77h-3.6V18.92c0-3.895-1.45-6.173-4.35-6.173-2.11 0-3.69 1.532-4.35 3.272-.17.54-.29 1.16-.29 1.82v12.39h-3.56V18.22c0-3.19-1.41-5.47-4.18-5.47-2.24 0-3.93 1.824-4.51 3.647-.21.498-.29 1.16-.29 1.78v12.06H55.3v-14.63M116.264 20c-3.977-.082-8.494.622-8.494 4.517 0 2.403 1.58 3.48 3.4 3.48 2.65 0 4.35-1.657 4.93-3.356.13-.41.17-.82.17-1.16V20zm3.523 5.428c0 1.74.08 3.44.29 4.807h-3.28l-.29-2.528h-.127c-1.12 1.575-3.27 2.983-6.13 2.983-4.06 0-6.14-2.86-6.14-5.76 0-4.848 4.31-7.5 12.058-7.458v-.413c0-1.62-.457-4.65-4.56-4.6-1.905 0-3.854.53-5.263 1.49l-.827-2.45c1.655-1.04 4.1-1.74 6.63-1.74 6.13 0 7.623 4.18 7.623 8.16v7.5zm9.48-3.232c0 .456.04.91.165 1.327.663 2.527 2.82 4.267 5.47 4.267 3.854 0 6.09-3.107 6.09-7.708 0-4.018-2.07-7.458-6.007-7.458-2.445 0-4.764 1.74-5.51 4.477-.125.46-.208.95-.208 1.54v3.56zm-3.6-21.38h3.604V13.41h.09c1.29-2.236 3.61-3.645 6.84-3.645 5.02 0 8.5 4.144 8.5 10.194 0 7.16-4.55 10.73-9.03 10.73-2.9 0-5.22-1.12-6.75-3.73h-.08l-.2 3.27h-3.11c.08-1.37.17-3.4.17-5.18V.81zm-20.324 1.49H84.67v3.067h10.05l-4.81 6.137h3.272v18.725h3.652V11.51h3.27L95.3 5.373h10.05V2.307"/></symbol><symbol viewBox="0 0 92 106" id="shape-grabber"><title>Slice 1</title><path d="M-2 1h95.604v21.248H-2zm0 39h95.604v21.257H-2zm0 40h95.604v21.257H-2z" fill-rule="evenodd"/></symbol><symbol viewBox="0 0 72 71" id="shape-grid-small"><title>grid-small</title><path d="M16.13 19.98H3.91c-1.97 0-3.57-1.598-3.57-3.572V4.19C.34 2.218 1.94.617 3.91.617h12.22c1.97 0 3.57 1.6 3.57 3.574v12.22c0 1.98-1.6 3.58-3.57 3.58m25.98 0H29.89c-1.97 0-3.57-1.59-3.57-3.57V4.2c0-1.973 1.6-3.574 3.57-3.574h12.22c1.97 0 3.57 1.6 3.57 3.574v12.22c0 1.973-1.6 3.572-3.57 3.572m25.98-.002H55.87c-1.97 0-3.57-1.597-3.57-3.57V4.2c0-1.972 1.6-3.573 3.57-3.573h12.22c1.97 0 3.57 1.6 3.57 3.576v12.22c0 1.975-1.6 3.574-3.57 3.574M16.13 45.17H3.91c-1.97 0-3.57-1.6-3.57-3.57V29.38c0-1.97 1.6-3.572 3.57-3.572h12.22c1.97 0 3.57 1.602 3.57 3.575v12.22c0 1.976-1.6 3.577-3.57 3.577m25.98 0H29.89c-1.97 0-3.57-1.6-3.57-3.578v-12.23c0-1.973 1.6-3.574 3.57-3.574h12.22c1.97 0 3.57 1.602 3.57 3.575v12.22c0 1.98-1.6 3.58-3.57 3.58m25.98 0H55.87c-1.97 0-3.57-1.6-3.57-3.576v-12.22c0-1.973 1.6-3.574 3.57-3.574h12.22c1.97 0 3.57 1.602 3.57 3.575v12.216c0 1.978-1.6 3.58-3.57 3.58m-51.96 25.17H3.91c-1.97 0-3.57-1.6-3.57-3.57v-12.22c0-1.976 1.6-3.575 3.57-3.575h12.22c1.97 0 3.57 1.6 3.57 3.57v12.21c0 1.97-1.6 3.57-3.57 3.57m25.98 0H29.89c-1.97 0-3.57-1.6-3.57-3.57V54.55c0-1.975 1.6-3.574 3.57-3.574h12.22c1.97 0 3.57 1.6 3.57 3.573v12.21c0 1.97-1.6 3.57-3.57 3.57m25.98 0H55.87c-1.97 0-3.57-1.6-3.57-3.57V54.55c0-1.978 1.6-3.577 3.57-3.577h12.22c1.97 0 3.57 1.6 3.57 3.575v12.21c0 1.972-1.6 3.57-3.57 3.57"/></symbol><symbol viewBox="0 0 117 74" id="shape-inbox-small"><title>inbox-small</title><path d="M6.506 67.238h103.436v-34.36l-17.56-25.64H24.066l-17.56 25.64v34.36zm106.686 6.5H3.256c-1.795 0-3.25-1.455-3.25-3.25V31.87c0-.655.198-1.296.57-1.837l19.096-27.88c.606-.885 1.61-1.415 2.68-1.415h71.743c1.072 0 2.076.53 2.68 1.414l19.1 27.88c.37.542.567 1.183.567 1.838v38.618c0 1.795-1.455 3.25-3.25 3.25z"/><path d="M74.68 48.255H41.768c-1.456 0-2.735-.97-3.13-2.37l-3.02-10.764H3.33c-1.794 0-3.25-1.45-3.25-3.25s1.456-3.25 3.25-3.25h34.75c1.457 0 2.736.97 3.13 2.38l3.02 10.77h27.987L75.24 31c.39-1.403 1.67-2.373 3.12-2.373h34.7c1.796 0 3.25 1.456 3.25 3.25s-1.454 3.25-3.25 3.25H80.83l-3.02 10.765c-.395 1.4-1.674 2.37-3.13 2.37"/></symbol><symbol viewBox="0 0 270 269" id="shape-info-circle-medium"><title>Slice 1</title><g fill-rule="evenodd"><path d="M135.29 8C65.65 8 9 64.65 9 134.283c0 69.634 56.65 126.284 126.29 126.284 69.63 0 126.28-56.65 126.28-126.284C261.57 64.65 204.92 8 135.29 8zm0 261.567C60.69 269.567 0 208.88 0 134.283 0 59.688 60.69-1 135.29-1c74.59 0 135.28 60.688 135.28 135.283 0 74.596-60.69 135.284-135.28 135.284z"/><path d="M134.99 59c-3 0-5.73 1.138-8.33 3.48-2.5 2.248-3.66 4.95-3.66 8.504 0 3.55 1.16 6.253 3.66 8.503 2.6 2.34 5.33 3.478 8.33 3.478 2.99 0 5.72-1.138 8.32-3.48 2.5-2.248 3.66-4.95 3.66-8.5 0-3.554-1.16-6.257-3.66-8.506-2.6-2.35-5.33-3.48-8.32-3.48zm0 32.965c-5.25 0-10.08-1.948-14.35-5.79-4.4-3.967-6.64-9.078-6.64-15.19 0-6.116 2.24-11.228 6.64-15.195 4.27-3.842 9.1-5.79 14.35-5.79 5.24 0 10.07 1.948 14.34 5.79 4.4 3.967 6.64 9.08 6.64 15.194 0 6.113-2.24 11.224-6.64 15.19-4.27 3.843-9.1 5.79-14.34 5.79zm-7.18 119.16h14.35v-93.63h-14.35v93.63zm18.85 9h-23.35c-2.49 0-4.5-2.015-4.5-4.5v-102.63c0-2.484 2.01-4.5 4.5-4.5h23.35c2.49 0 4.5 2.016 4.5 4.5v102.63c0 2.485-2.01 4.5-4.5 4.5z"/></g></symbol><symbol viewBox="0 0 44 71" id="shape-left-arrow"><title>left-arrow</title><path d="M36.156 11.97L9.453 36.01l26.703 24.04V11.97zM1.346 36.01c0-.92.39-1.8 1.074-2.42L37.232 2.26c.955-.86 2.325-1.08 3.497-.56 1.17.53 1.92 1.69 1.92 2.97v62.68c0 1.28-.76 2.44-1.93 2.97-1.18.52-2.55.3-3.5-.56L2.42 38.42c-.684-.61-1.074-1.49-1.074-2.41z"/></symbol><symbol viewBox="0 0 18 25" id="shape-location"><title>Slice 1</title><path d="M15.958 13.61c.665-1.157 1.05-2.494 1.05-3.924 0-4.36-3.534-7.894-7.894-7.894S1.22 5.326 1.22 9.686c0 1.43.385 2.767 1.05 3.924h-.005l5.363 9.397c.397.697 1.728.722 2.173.04l5.73-8.766c.13-.17-.11.19.05-.07l.39-.59zm-6.844-1.325c-1.435 0-2.6-1.163-2.6-2.6 0-1.434 1.165-2.597 2.6-2.597s2.6 1.163 2.6 2.598c0 1.436-1.165 2.6-2.6 2.6z"/></symbol><symbol viewBox="0 0 270 269" id="shape-member-medium"><title>member-medium</title><path d="M9.64 259.463H261v-20.137c0-18.984-15.43-35.053-34.4-35.822-.22-.01-.45-.034-.67-.077-.77-.15-1.58-.306-2.42-.472-1.66-.33-3.43-.69-5.27-1.078-10.57-2.238-19.03-4.493-25.16-6.7-3.68-1.33-6.48-2.623-8.55-3.954-2.39-1.534-5.13-3.332-7.44-5.047-1.75-1.305-3.18-2.51-4.38-3.688-.91-.898-1.68-1.777-2.37-2.69-2.58-3.42-3.78-7.183-3.78-11.84 0-1.94.34-4.08 1.04-6.552.61-2.174 1.49-4.5 2.67-7.11.57-1.267 1.18-2.545 1.81-3.796l.12-.234c.41-.815.83-1.63 1.26-2.444.07-.123.14-.242.21-.357.87-1.34 1.78-2.81 2.84-4.615.16-.274.32-.553.47-.834l.18-.307c.8-1.4 1.57-2.81 2.3-4.19l.33-.63c7.03-13.6 12.11-29.09 13.92-42.51l.04-.39c.19-1.41.68-8.26.68-9.4V65.16c0-30.9-25.14-56.042-56.04-56.042h-6.13c-3.79 0-7.57.382-11.26 1.14-3.58.74-7.11 1.84-10.49 3.277-.83.353-1.67.73-2.48 1.124-19.33 9.35-31.81 29.17-31.81 50.5v19.45c0 1.14.49 7.99.68 9.4l.04.36c1.81 13.42 6.88 28.91 13.92 42.5l.34.64c.73 1.4 1.51 2.81 2.29 4.17l.16.28c.16.29.33.57.49.86 1.07 1.81 1.97 3.28 2.84 4.61.07.11.14.23.21.36 1.26 2.39 2.3 4.51 3.19 6.47.72 1.59 1.35 3.15 1.87 4.61 1.24 3.47 1.84 6.43 1.84 9.04 0 2.66-.4 5.01-1.21 7.18-1.47 3.96-4.26 7.26-9.33 11.03-2.3 1.72-5.05 3.51-7.43 5.05-4.84 3.11-14.02 6.18-28.06 9.4-4.15.95-8.64 1.89-13.35 2.79-.22.05-.44.07-.66.08-8.01.33-15.79 3.41-21.9 8.68-1.7 1.47-3.27 3.09-4.67 4.84-2.86 3.57-4.97 7.59-6.3 11.93-1.02 3.35-1.54 6.84-1.54 10.37v20.14zm255.86 9H5.14c-2.48 0-4.5-2.014-4.5-4.5v-24.637c0-4.418.65-8.79 1.93-12.996 1.66-5.434 4.31-10.453 7.88-14.922 1.74-2.18 3.7-4.215 5.82-6.04 7.56-6.52 17.16-10.362 27.07-10.842 4.48-.864 8.75-1.76 12.7-2.667 16.83-3.86 23.02-6.8 25.21-8.21 2.26-1.45 4.84-3.14 6.93-4.7 3.61-2.7 5.43-4.71 6.27-6.96.43-1.15.64-2.47.64-4.04 0-1.55-.45-3.58-1.32-6.03-.44-1.23-.97-2.55-1.59-3.92-.79-1.75-1.73-3.65-2.86-5.81-.91-1.41-1.85-2.94-2.94-4.8-.19-.32-.37-.64-.55-.96l-.16-.27c-.83-1.46-1.65-2.96-2.45-4.47l-.36-.69c-7.49-14.47-12.9-31.03-14.84-45.43l-.05-.4c-.22-1.69-.75-8.93-.75-10.58V65.16c0-24.757 14.48-47.76 36.89-58.6.94-.456 1.91-.895 2.88-1.305 3.93-1.668 8.03-2.95 12.2-3.81C123.47.565 127.86.12 132.26.12h6.13c35.86 0 65.04 29.177 65.04 65.042v19.453c0 1.645-.53 8.883-.75 10.564l-.05.41c-1.95 14.4-7.36 30.96-14.85 45.43l-.35.66c-.78 1.49-1.61 3-2.46 4.49l-.17.29c-.17.31-.35.61-.53.92-1.09 1.85-2.03 3.39-2.94 4.8-.37.71-.74 1.42-1.1 2.13l-.1.2c-.58 1.15-1.14 2.31-1.66 3.47-.98 2.17-1.73 4.14-2.21 5.85-.47 1.64-.7 3.02-.7 4.1 0 2.71.57 4.57 1.97 6.42.41.55.91 1.11 1.5 1.69.9.89 2.02 1.83 3.44 2.88 2.08 1.55 4.67 3.24 6.93 4.69 1.47.95 3.74 1.98 6.74 3.06 5.73 2.07 13.8 4.21 23.97 6.36 1.79.38 3.52.73 5.15 1.05.7.14 1.39.27 2.05.4 23.97 1.15 42.69 20.76 42.69 44.8v24.63c0 2.48-2.01 4.5-4.5 4.5z"/></symbol><symbol viewBox="0 0 116 115" id="shape-member-small"><title>member-small</title><path d="M6.962 108.12h101.984v-7.016c0-7.182-5.84-13.262-13.016-13.553-.16 0-.322-.02-.48-.05l-1.018-.2c-.7-.14-1.443-.29-2.213-.45-4.47-.94-8.06-1.9-10.67-2.84-1.64-.58-2.89-1.17-3.85-1.78-1.07-.68-2.19-1.42-3.18-2.15-.78-.58-1.43-1.12-1.97-1.66-.43-.42-.8-.84-1.13-1.27-1.25-1.65-1.85-3.53-1.85-5.76 0-.93.15-1.95.48-3.1.27-.97.66-2 1.18-3.15.24-.54.5-1.09.78-1.63l.04-.09c.18-.35.36-.7.54-1.04.05-.09.1-.17.15-.26.39-.6.77-1.23 1.14-1.86l.26-.46c.32-.56.63-1.13.93-1.7l.13-.25c2.87-5.54 4.93-11.83 5.67-17.28l.02-.15c.07-.53.26-3.26.27-3.73v-8.11c0-12.12-9.86-21.98-21.98-21.98h-2.55c-1.48 0-2.97.15-4.41.45-1.41.29-2.79.73-4.11 1.29-.33.14-.65.29-.97.44-7.58 3.67-12.48 11.44-12.48 19.8v8.11c0 .48.2 3.21.27 3.74l.01.12c.73 5.46 2.8 11.76 5.66 17.28l.14.26c.29.57.61 1.13.93 1.69l.26.46c.37.64.75 1.26 1.14 1.87.06.08.11.17.15.26.53 1.02.98 1.93 1.36 2.77.32.7.59 1.38.82 2.03.57 1.6.84 2.98.84 4.23 0 1.28-.2 2.42-.59 3.48-.9 2.42-2.71 4-4.36 5.22-.99.74-2.16 1.51-3.17 2.16-2.15 1.39-6.12 2.73-12.13 4.11-1.74.4-3.63.8-5.61 1.18-.16.03-.32.05-.48.06-3.03.12-5.97 1.29-8.28 3.28-.64.56-1.24 1.18-1.77 1.84C8.81 94.07 8 95.58 7.5 97.22c-.383 1.27-.58 2.59-.58 3.92v7.02zm105.234 6.5H3.712c-1.795 0-3.25-1.456-3.25-3.25v-10.266c0-1.978.29-3.935.864-5.817.74-2.43 1.926-4.677 3.523-6.674.77-.976 1.65-1.884 2.6-2.7 3.35-2.894 7.61-4.61 12.01-4.845 1.82-.35 3.55-.714 5.15-1.082 7.06-1.62 9.39-2.803 10.06-3.238.92-.59 1.97-1.28 2.8-1.9 1.26-.94 1.9-1.62 2.15-2.28.12-.32.17-.713.17-1.202 0-.335-.08-.962-.47-2.053-.17-.475-.38-.99-.62-1.527-.32-.69-.69-1.44-1.13-2.292-.42-.65-.83-1.32-1.22-1.996l-.3-.524c-.36-.626-.71-1.262-1.05-1.908l-.16-.295c-3.19-6.16-5.5-13.22-6.33-19.37l-.02-.14c-.1-.73-.33-3.8-.33-4.61v-8.11c0-10.84 6.34-20.91 16.15-25.65.41-.2.83-.39 1.26-.57 1.72-.73 3.51-1.29 5.34-1.67C52.8.27 54.72.07 56.65.07h2.556C74.926.07 87.7 12.84 87.7 28.54v8.106c0 .806-.233 3.876-.325 4.58l-.022.182c-.83 6.147-3.135 13.21-6.326 19.376l-.148.28c-.34.652-.69 1.29-1.05 1.918l-.3.52c-.4.68-.81 1.35-1.23 2-.15.27-.29.544-.42.817-.28.55-.5 1.01-.71 1.47-.38.84-.67 1.6-.85 2.24-.2.69-.24 1.11-.24 1.33 0 .94.21 1.4.54 1.85.13.17.29.36.49.55.33.32.75.67 1.29 1.07.83.62 1.88 1.31 2.8 1.9.36.23 1.09.62 2.53 1.14 2.3.83 5.69 1.72 9.8 2.6.74.15 1.45.3 2.13.43l.75.15c10.67.56 18.99 9.31 18.99 20.03v10.26c0 1.79-1.46 3.25-3.25 3.25z"/></symbol><symbol viewBox="0 0 436 435" id="shape-member"><title>member</title><path d="M11 423.88h413.91v-34.7c0-15.63-6.014-30.47-16.933-41.81-10.89-11.3-25.445-17.87-40.983-18.5-.274-.01-.546-.04-.815-.09-1.27-.25-2.59-.5-3.94-.77-2.72-.54-5.6-1.13-8.58-1.76-17.17-3.63-30.91-7.29-40.82-10.86-5.89-2.12-10.33-4.18-13.59-6.27-3.86-2.49-8.31-5.4-12.03-8.17-2.79-2.07-5.06-3.99-6.96-5.85-1.42-1.4-2.63-2.77-3.7-4.19-3.96-5.24-5.8-11.03-5.8-18.21 0-2.99.53-6.33 1.62-10.19.98-3.46 2.37-7.17 4.26-11.34.93-2.06 1.91-4.12 2.93-6.13l.17-.36c.68-1.34 1.36-2.67 2.06-3.98.08-.15.16-.3.25-.44 1.44-2.22 2.93-4.63 4.67-7.6.27-.47.55-.95.82-1.43l.25-.45c1.31-2.29 2.58-4.61 3.78-6.9l.54-1.02c11.57-22.37 19.92-47.88 22.91-69.98l.07-.62c.28-2.19 1.12-13.45 1.12-15.58v-31.74c0-51.45-41.86-93.31-93.31-93.31h-10c-6.3 0-12.61.64-18.74 1.9-5.97 1.23-11.85 3.07-17.47 5.46-1.4.59-2.79 1.22-4.13 1.87-32.18 15.57-52.96 48.57-52.96 84.08v31.74c0 2.13.83 13.4 1.12 15.59l.07.61c2.98 22.1 11.33 47.6 22.9 69.97l.55 1.05c1.21 2.3 2.48 4.62 3.78 6.88l.27.47c.27.47.53.94.81 1.41 1.75 2.98 3.23 5.39 4.67 7.6.09.14.18.29.25.44 2.04 3.86 3.73 7.29 5.16 10.47 1.16 2.56 2.17 5.05 3 7.39 1.94 5.47 2.89 10.09 2.89 14.14 0 4.13-.61 7.75-1.85 11.08-2.28 6.11-6.65 11.25-14.6 17.17-3.72 2.77-8.17 5.68-12.03 8.17-7.61 4.89-22.82 9.97-45.22 15.11-6.75 1.55-14.06 3.08-21.71 4.55-.27.05-.54.08-.82.09-13.48.55-26.58 5.74-36.87 14.61-2.86 2.46-5.5 5.21-7.85 8.15-4.81 6.02-8.38 12.77-10.6 20.08-1.72 5.64-2.59 11.52-2.59 17.47v34.7zm419.41 11H5.5c-3.038 0-5.5-2.46-5.5-5.5v-40.2c0-7.04 1.033-13.99 3.07-20.68 2.635-8.64 6.85-16.63 12.532-23.74 2.775-3.47 5.892-6.71 9.262-9.61 12.063-10.4 27.384-16.52 43.187-17.25 7.39-1.42 14.43-2.9 20.94-4.39 26.35-6.05 37.24-10.76 41.73-13.65 3.71-2.38 7.96-5.16 11.41-7.73 6.22-4.63 9.36-8.16 10.87-12.19.78-2.08 1.16-4.45 1.16-7.24 0-2.73-.76-6.25-2.25-10.46-.73-2.06-1.62-4.25-2.65-6.54-1.32-2.91-2.87-6.07-4.75-9.65-1.49-2.3-3.02-4.79-4.8-7.83-.3-.5-.59-1.01-.88-1.52l-.26-.46c-1.36-2.37-2.7-4.81-3.97-7.24l-.23-.44c-.12-.22-.23-.44-.35-.66-12.13-23.44-20.89-50.25-24.03-73.55l-.08-.64c-.35-2.71-1.22-14.37-1.22-17.03v-31.74c0-39.7 23.23-76.59 59.17-93.98 1.51-.73 3.06-1.43 4.62-2.09 6.3-2.68 12.88-4.73 19.56-6.11C198.9 1.35 205.95.63 212.99.63h10.004c57.51 0 104.3 46.79 104.3 104.31v31.74c0 2.65-.863 14.3-1.216 17.01l-.08.66c-3.147 23.31-11.91 50.12-24.04 73.56-.11.21-.224.43-.34.64l-.23.43c-1.26 2.42-2.6 4.86-3.98 7.26l-.244.43c-.29.52-.59 1.04-.88 1.55-1.78 3.03-3.31 5.52-4.805 7.83-.63 1.19-1.24 2.38-1.85 3.58l-.17.36c-.94 1.87-1.86 3.79-2.73 5.71-1.67 3.67-2.87 6.88-3.7 9.81-.82 2.87-1.21 5.23-1.21 7.19 0 4.8 1.07 8.26 3.58 11.59.74.98 1.6 1.95 2.63 2.97 1.53 1.51 3.43 3.1 5.81 4.87 3.44 2.57 7.7 5.35 11.4 7.73 2.52 1.63 6.35 3.37 11.37 5.18 9.44 3.4 22.69 6.92 39.37 10.45 2.93.62 5.76 1.2 8.43 1.73 1.19.23 2.36.46 3.48.68 18.22.84 35.27 8.59 48.04 21.84 12.9 13.4 20.01 30.95 20.01 49.44v40.2c0 3.04-2.47 5.5-5.5 5.5z"/></symbol><symbol viewBox="0 0 100 117" id="shape-new-form-small"><title>new-form-small</title><path d="M96.63 33.32H70.46c-1.796 0-3.25-1.455-3.25-3.25V3.897c0-1.794 1.454-3.25 3.25-3.25 1.794 0 3.248 1.456 3.248 3.25v22.92h22.92c1.796 0 3.25 1.456 3.25 3.25 0 1.797-1.454 3.252-3.25 3.252"/><path d="M7.465 110.238H93.38V31.43L69.1 7.15H7.464v103.088zm89.164 6.5H4.21c-1.795 0-3.25-1.455-3.25-3.25V3.898c0-1.794 1.455-3.25 3.25-3.25h66.23c.862 0 1.69.343 2.3.954l26.182 26.183c.61.61.952 1.436.952 2.298v83.405c0 1.795-1.456 3.25-3.25 3.25z"/><path d="M68.513 61.943h-36.18c-1.796 0-3.25-1.455-3.25-3.25s1.454-3.25 3.25-3.25h36.18c1.795 0 3.25 1.455 3.25 3.25s-1.455 3.25-3.25 3.25"/><path d="M50.422 80.033c-1.795 0-3.25-1.454-3.25-3.25v-36.18c0-1.795 1.455-3.25 3.25-3.25s3.25 1.455 3.25 3.25v36.18c0 1.796-1.455 3.25-3.25 3.25"/></symbol><symbol viewBox="0 0 17 26" id="shape-phone"><title>Slice 1</title><path d="M13.076 23.885l1.687-.93c1.127-.623 1.536-2.04.915-3.167l-1.52-2.753c-.62-1.127-2.04-1.537-3.166-.915l-.05.027c-2.52 1.237-5.535-3.96-2.966-5.375l.05-.028c1.127-.622 1.536-2.04.915-3.166L7.43 4.825c-.624-1.127-2.04-1.537-3.17-.915l-1.686.93-.12.067c-1.69.933-2.5 4.64 1.077 11.125 3.91 7.085 7.74 8.852 9.43 7.92l.12-.067zM10.584 3.62c.735.21 1.27 1.17 1.056 1.912L10.584 3.62zm2.003-2.47c1.58.52 2.786 2.682 2.38 4.313l-2.38-4.312z"/></symbol><symbol viewBox="0 0 62 62" id="shape-plus-small"><title>Slice 1</title><g fill-rule="evenodd"><path d="M58.09 33.943H3.83c-1.79 0-3.25-1.455-3.25-3.25s1.46-3.25 3.25-3.25h54.26c1.79 0 3.25 1.455 3.25 3.25s-1.46 3.25-3.25 3.25"/><path d="M30.96 61.07c-1.79 0-3.25-1.455-3.25-3.25V3.566c0-1.795 1.46-3.25 3.25-3.25s3.25 1.455 3.25 3.25V57.82c0 1.795-1.46 3.25-3.25 3.25"/></g></symbol><symbol viewBox="0 0 271 272" id="shape-puzzle-medium"><title>Slice 1</title><path d="M18.05 115.35c-4.99 0-9.05 4.06-9.05 9.05v128.66c0 5.01 4.07 9.08 9.08 9.08h27.4c-11.86-10.57-18.59-25.49-18.59-41.53 0-30.73 25-55.73 55.73-55.73 30.73 0 55.73 25 55.73 55.73 0 16.04-6.67 30.89-18.46 41.45 7.02-.07 16.93-.16 23.36-.22h3.14c4.99 0 9.05-4.06 9.05-9.05v-28.31c0-.85.24-1.68.7-2.4.1-.2.41-1.07.61-1.66.51-1.43 1.04-2.92 1.81-4.06l.89-1.32c4.62-6.85 10.38-15.38 18.3-15.38 8.31 0 16.09 3.71 21.36 10.17.02.03.05.06.07.1 6.68 8.66 16.77 13.62 27.68 13.62 19.26 0 34.93-15.67 34.93-34.93 0-19.26-15.67-34.93-34.93-34.93-11.1 0-21.29 5.1-27.96 13.98-.06.08-.11.15-.17.22-5.26 6.18-12.91 9.72-20.98 9.72-7.95 0-13.71-8.56-18.35-15.43l-.83-1.23c-.77-1.14-1.31-2.64-1.82-4.09-.21-.59-.53-1.49-.68-1.76-.42-.71-.63-1.48-.63-2.3v-28.4c0-4.99-4.06-9.05-9.05-9.05h-28.31c-.85 0-1.68-.24-2.4-.7-.19-.1-1.07-.41-1.65-.61-1.44-.51-2.93-1.04-4.07-1.81l-1.32-.89c-6.85-4.62-15.38-10.38-15.38-18.3 0-8.31 3.71-16.09 10.17-21.36.03-.02.06-.05.09-.07 8.67-6.68 13.63-16.77 13.63-27.68C117.15 24.67 101.48 9 82.22 9 62.96 9 47.29 24.67 47.29 43.93c0 11.1 5.09 21.29 13.98 27.96.08.06.15.11.22.17 6.18 5.26 9.72 12.9 9.72 20.98 0 7.95-8.55 13.71-15.43 18.34l-1.23.84c-1.14.77-2.64 1.31-4.09 1.82-.6.21-1.49.53-1.77.68-.7.42-1.47.63-2.29.63H18.05zm35.51 155.79H18.08C8.11 271.14 0 263.03 0 253.06V124.45c0-10.01 8.09-18.1 18.05-18.1h27.31c.65-.28 1.36-.53 2.08-.79.66-.24 1.77-.63 2.1-.82l1.21-.82c4.01-2.7 11.46-7.72 11.46-10.88 0-5.39-2.35-10.5-6.46-14.04-11.1-8.39-17.46-21.16-17.46-35.07C38.29 19.71 58 0 82.22 0s43.93 19.71 43.93 43.93c0 13.7-6.22 26.37-17.08 34.77-4.33 3.54-6.81 8.77-6.81 14.34 0 3.14 7.43 8.15 11.42 10.84l1.35.91c.26.15 1.34.53 1.99.76.74.26 1.45.51 2.11.8h27.26c9.96 0 18.05 8.09 18.05 18.05v27.36c.28.65.53 1.36.79 2.08.23.66.63 1.77.82 2.1l.82 1.21c2.7 4 7.72 11.46 10.88 11.46 5.39 0 10.5-2.35 14.04-6.46 8.39-11.1 21.16-17.46 35.07-17.46 24.22 0 43.93 19.71 43.93 43.93 0 24.23-19.71 43.93-43.93 43.93-13.7 0-26.37-6.22-34.77-17.08-3.54-4.33-8.77-6.81-14.34-6.81-3.14 0-8.15 7.43-10.84 11.42l-.91 1.35c-.15.26-.53 1.34-.76 1.99-.26.74-.51 1.45-.8 2.11v27.21c0 10.01-8.09 18.1-18.05 18.1h-3.1c-5.2.05-31.34.29-31.71.29h-.2c-3.17-.15-5.65-2.74-5.65-5.9 0-1.44.54-2.84 1.52-3.93.02-.03.05-.06.08-.09.19-.21 1.91-2.02 3.1-3.03.07-.06.14-.11.21-.17 11.89-8.92 18.71-22.55 18.71-37.4 0-25.76-20.96-46.73-46.73-46.73-25.76 0-46.73 20.97-46.73 46.73 0 14.6 6.65 28.09 18.23 37.02.03.03.07.05.1.08 1.38 1.12 2.53 2.3 3.59 3.41.07.07.13.14.19.21.48.57 1.59 2.13 1.47 4.18-.21 3.16-2.8 5.63-5.91 5.63z" fill-rule="evenodd"/></symbol><symbol viewBox="0 0 270 270" id="shape-right-arrow-medium"><title>right-arrow-medium</title><path d="M134.82 9C65.44 9 9 65.44 9 134.82s56.44 125.83 125.82 125.83c69.39 0 125.83-56.45 125.83-125.83S204.21 9 134.82 9zm0 260.65C60.48 269.65 0 209.17 0 134.82 0 60.48 60.48 0 134.82 0c74.35 0 134.83 60.48 134.83 134.82 0 74.35-60.48 134.83-134.83 134.83z"/><path d="M186.77 139.04H68.5c-2.49 0-4.5-2.02-4.5-4.5 0-2.49 2.01-4.5 4.5-4.5h107.41l-31.36-31.35c-1.76-1.76-1.76-4.61 0-6.37 1.76-1.76 4.61-1.76 6.37 0l39.03 39.04c1.29 1.28 1.67 3.22.98 4.9-.7 1.68-2.34 2.78-4.16 2.78"/><path d="M147.5 179.17c-1.15 0-2.3-.44-3.18-1.31-1.76-1.76-1.76-4.61 0-6.37l39.17-39.17c1.76-1.76 4.61-1.76 6.37 0 1.75 1.76 1.75 4.61 0 6.37l-39.17 39.17c-.88.87-2.03 1.31-3.19 1.31"/></symbol><symbol viewBox="0 0 19 31" id="shape-right-arrow-thin"><title>Slice 1 1</title><path d="M18.262 15.32c0 .267-.103.503-.307.707L3.652 30.33c-.204.204-.44.307-.706.307-.266 0-.5-.103-.705-.307L.71 28.795C.5 28.59.4 28.355.4 28.09c0-.267.1-.502.306-.707L12.768 15.32.706 3.26C.5 3.054.4 2.82.4 2.553c0-.266.1-.502.306-.706L2.24.313c.205-.205.44-.307.706-.307.266 0 .502.102.706.307l14.303 14.303c.204.204.307.44.307.705z" fill-rule="evenodd"/></symbol><symbol viewBox="0 0 6 10" id="shape-right-arrow"><title>Slice 1</title><path d="M1 1l4.062 4.06L1 9.126"/></symbol><symbol viewBox="0 0 59 47" id="shape-right-small"><title>right-small</title><path d="M22.35 41.886V7.4l18.813 17.24-18.81 17.244z"/></symbol><symbol viewBox="0 0 88 89" id="shape-search-small"><title>search-small</title><path d="M38.61 7.412c-17.46 0-31.66 14.2-31.66 31.656 0 17.455 14.2 31.657 31.66 31.657 17.45 0 31.65-14.202 31.65-31.657S56.06 7.412 38.61 7.412zm0 69.813C17.57 77.225.45 60.107.45 39.068.45 18.028 17.57.912 38.61.912c21.04 0 38.15 17.117 38.15 38.156 0 21.04-17.11 38.157-38.15 38.157z"/><path d="M84.72 88.334c-.83 0-1.67-.316-2.3-.95L60.96 65.927c-1.27-1.27-1.27-3.327 0-4.597 1.27-1.268 3.33-1.268 4.6 0l21.46 21.457c1.26 1.27 1.26 3.326 0 4.596-.64.635-1.47.95-2.3.95"/></symbol><symbol viewBox="0 0 241 273" id="shape-send-forms-diagonal-medium"><title>send-forms-diagonal-medium</title><path d="M223.42 109.556h-51.06c-2.48 0-4.5-2.015-4.5-4.5V53.994c0-2.484 2.02-4.5 4.5-4.5 2.49 0 4.5 2.016 4.5 4.5v46.562h46.56c2.49 0 4.5 2.014 4.5 4.5 0 2.485-2.01 4.5-4.5 4.5"/><path d="M47.62 263.31h171.3V106.946l-48.45-48.45H47.62V263.31zm175.8 9H43.12c-2.49 0-4.5-2.015-4.5-4.5V53.995c0-2.484 2.01-4.5 4.5-4.5h129.22c1.19 0 2.33.476 3.18 1.32L226.6 101.9c.85.844 1.32 1.99 1.32 3.182v162.73c0 2.483-2.01 4.5-4.5 4.5z"/><path d="M34.11 252.834H23.64c-2.49 0-4.5-2.016-4.5-4.5V34.518c0-2.485 2.01-4.5 4.5-4.5h129.22c1.2 0 2.34.476 3.19 1.325l6.54 6.542c1.76 1.758 1.76 4.605.01 6.363-1.76 1.758-4.61 1.76-6.37.002L151 39.018H28.14v204.816h5.97c2.48 0 4.5 2.014 4.5 4.5 0 2.484-2.02 4.5-4.5 4.5"/><path d="M14.98 233.71H4.51c-2.48 0-4.5-2.017-4.5-4.5V15.392c0-2.485 2.02-4.5 4.5-4.5h129.22c1.21 0 2.36.48 3.2 1.333l5.68 5.674c1.76 1.75 1.76 4.6 0 6.36-1.76 1.75-4.61 1.76-6.36 0l-4.38-4.38H9.01V224.7h5.97c2.49 0 4.5 2.013 4.5 4.5 0 2.483-2.01 4.5-4.5 4.5"/><path d="M111.25 79.256H64.22c-2.49 0-4.5-2.016-4.5-4.5 0-2.485 2.01-4.5 4.5-4.5h47.03c2.49 0 4.5 2.015 4.5 4.5 0 2.484-2.01 4.5-4.5 4.5m0 16.35H64.22c-2.49 0-4.5-2.015-4.5-4.5s2.01-4.5 4.5-4.5h47.03c2.49 0 4.5 2.015 4.5 4.5s-2.01 4.5-4.5 4.5m0 16.35H64.22c-2.49 0-4.5-2.015-4.5-4.5s2.01-4.5 4.5-4.5h47.03c2.49 0 4.5 2.015 4.5 4.5s-2.01 4.5-4.5 4.5m0 24.146H64.22c-2.49 0-4.5-2.014-4.5-4.5 0-2.485 2.01-4.5 4.5-4.5h47.03c2.49 0 4.5 2.015 4.5 4.5 0 2.486-2.01 4.5-4.5 4.5m0 18.25H64.22c-2.49 0-4.5-2.014-4.5-4.5 0-2.485 2.01-4.5 4.5-4.5h47.03c2.49 0 4.5 2.015 4.5 4.5 0 2.486-2.01 4.5-4.5 4.5m0 18.252H64.22c-2.49 0-4.5-2.016-4.5-4.5 0-2.487 2.01-4.5 4.5-4.5h47.03c2.49 0 4.5 2.013 4.5 4.5 0 2.484-2.01 4.5-4.5 4.5m91.07-36.502h-70.83c-2.49 0-4.5-2.014-4.5-4.5 0-2.485 2.01-4.5 4.5-4.5h70.83c2.49 0 4.5 2.015 4.5 4.5 0 2.486-2.01 4.5-4.5 4.5m0 18.25h-70.83c-2.49 0-4.5-2.014-4.5-4.5 0-2.485 2.01-4.5 4.5-4.5h70.83c2.49 0 4.5 2.015 4.5 4.5 0 2.486-2.01 4.5-4.5 4.5m0 18.252h-70.83c-2.49 0-4.5-2.016-4.5-4.5 0-2.487 2.01-4.5 4.5-4.5h70.83c2.49 0 4.5 2.013 4.5 4.5 0 2.484-2.01 4.5-4.5 4.5m-74.06 69.86h69.56v-42.39h-69.56v42.39zm74.06 9h-78.56c-2.48 0-4.5-2.015-4.5-4.5v-51.39c0-2.487 2.02-4.5 4.5-4.5h78.56c2.49 0 4.5 2.013 4.5 4.5v51.39c0 2.485-2.01 4.5-4.5 4.5zm14.61-204.7c1.15 0 2.3.44 3.18 1.318l11.71 11.705V9.024h-50.77l11.71 11.706c1.76 1.757 1.76 4.608 0 6.365l-6.97 6.97 20.98 20.988 6.98-6.97c.87-.88 2.03-1.32 3.18-1.32zm19.39 28.387c-1.17 0-2.33-.45-3.19-1.31l-16.2-16.2-6.97 6.97c-1.76 1.76-4.61 1.76-6.37 0l-27.35-27.35c-1.76-1.76-1.76-4.6 0-6.36l6.97-6.97-16.2-16.2c-1.29-1.28-1.67-3.22-.98-4.9.7-1.68 2.34-2.78 4.16-2.78h66.13c2.48 0 4.5 2.02 4.5 4.5v66.12c0 1.83-1.1 3.47-2.78 4.16-.56.23-1.14.34-1.72.34z"/></symbol><symbol viewBox="0 0 272 269" id="shape-send-forms-medium"><title>Slice 1</title><g fill-rule="evenodd"><path d="M91.53 68H57.5c-2.49 0-4.5-2.015-4.5-4.5s2.01-4.5 4.5-4.5h34.03c2.49 0 4.5 2.015 4.5 4.5s-2.01 4.5-4.5 4.5m0 17H57.5c-2.49 0-4.5-2.015-4.5-4.5 0-2.486 2.01-4.5 4.5-4.5h34.03c2.49 0 4.5 2.014 4.5 4.5 0 2.485-2.01 4.5-4.5 4.5m0 16H57.5c-2.49 0-4.5-2.015-4.5-4.5 0-2.486 2.01-4.5 4.5-4.5h34.03c2.49 0 4.5 2.014 4.5 4.5 0 2.485-2.01 4.5-4.5 4.5m0 33H57.5c-2.49 0-4.5-2.015-4.5-4.5s2.01-4.5 4.5-4.5h34.03c2.49 0 4.5 2.015 4.5 4.5s-2.01 4.5-4.5 4.5m0 18H57.5c-2.49 0-4.5-2.015-4.5-4.5 0-2.486 2.01-4.5 4.5-4.5h34.03c2.49 0 4.5 2.014 4.5 4.5 0 2.485-2.01 4.5-4.5 4.5m0 19H57.5c-2.49 0-4.5-2.015-4.5-4.5s2.01-4.5 4.5-4.5h34.03c2.49 0 4.5 2.015 4.5 4.5s-2.01 4.5-4.5 4.5m64.81-37H111.5c-2.48 0-4.5-2.015-4.5-4.5s2.02-4.5 4.5-4.5h44.84c2.48 0 4.5 2.015 4.5 4.5s-2.02 4.5-4.5 4.5m0 18H111.5c-2.48 0-4.5-2.015-4.5-4.5 0-2.486 2.02-4.5 4.5-4.5h44.84c2.48 0 4.5 2.014 4.5 4.5 0 2.485-2.02 4.5-4.5 4.5m0 19H111.5c-2.48 0-4.5-2.015-4.5-4.5s2.02-4.5 4.5-4.5h44.84c2.48 0 4.5 2.015 4.5 4.5s-2.02 4.5-4.5 4.5m36.73-75.43H135.5c-2.49 0-4.5-2.015-4.5-4.5V33.5c0-2.485 2.01-4.5 4.5-4.5 2.48 0 4.5 2.015 4.5 4.5v53.07h53.07c2.48 0 4.5 2.015 4.5 4.5s-2.02 4.5-4.5 4.5"/><path d="M37 259.072h151.29V92.964L133.32 38H37v221.072zm155.79 9H32.5c-2.49 0-4.5-2.014-4.5-4.5V33.5c0-2.485 2.01-4.5 4.5-4.5h102.69c1.19 0 2.34.475 3.18 1.318l57.6 57.6c.84.844 1.32 1.988 1.32 3.182v172.472c0 2.486-2.02 4.5-4.5 4.5z"/><path d="M33.88 239.072H4.5c-2.48 0-4.5-2.015-4.5-4.5V4.5C0 2.015 2.02 0 4.5 0h102.69c1.2 0 2.34.474 3.18 1.318l14.7 14.698c1.76 1.757 1.76 4.606 0 6.364-1.75 1.757-4.6 1.757-6.36 0L105.33 9H9v221.072h24.88c2.48 0 4.5 2.015 4.5 4.5s-2.02 4.5-4.5 4.5m77.12-1.13h53.57V199H111v38.943zm58.07 9H106.5c-2.48 0-4.5-2.014-4.5-4.5V194.5c0-2.486 2.02-4.5 4.5-4.5h62.57c2.49 0 4.5 2.014 4.5 4.5v47.943c0 2.485-2.01 4.5-4.5 4.5zM215 139.63h20.92c2.48 0 4.5 2.016 4.5 4.5v8.838l20.96-23.36-20.96-23.357v8.84c0 2.49-2.02 4.5-4.5 4.5H215v20.05zm20.92 29.59c-.54 0-1.09-.098-1.61-.3-1.74-.666-2.89-2.337-2.89-4.2v-16.09H210.5c-2.49 0-4.5-2.014-4.5-4.5v-29.043c0-2.485 2.01-4.5 4.5-4.5h20.92V94.5c0-1.864 1.15-3.536 2.89-4.202 1.74-.667 3.71-.192 4.96 1.196l31.51 35.11c1.53 1.71 1.53 4.3 0 6.01l-31.51 35.11c-.87.97-2.1 1.495-3.35 1.495z"/></g></symbol><symbol viewBox="0 0 28 27" id="shape-star"><title>Slice 1</title><path d="M14.034 0l4.337 8.787 9.7 1.408-7.01 6.84 1.66 9.658-8.67-4.56-8.67 4.56 1.66-9.658L0 10.195l9.697-1.408L14.034 0" fill-rule="evenodd"/></symbol><symbol viewBox="0 0 272 271" id="shape-team-medium"><title>Slice 1</title><g fill-rule="evenodd"><path d="M267.35 270.83H4.5c-2.49 0-4.5-2.016-4.5-4.5v-24.874c0-2.485 2.01-4.5 4.5-4.5 2.48 0 4.5 2.015 4.5 4.5v20.373h253.85v-20.38c0-19.19-15.6-35.44-34.77-36.21-.23-.01-.45-.04-.67-.08-.78-.15-1.6-.31-2.44-.48-1.69-.34-3.47-.7-5.32-1.09-10.67-2.26-19.22-4.54-25.4-6.76-3.72-1.34-6.54-2.65-8.63-3.99-2.4-1.55-5.17-3.36-7.5-5.09-1.76-1.31-3.21-2.53-4.42-3.72-.91-.91-1.7-1.79-2.39-2.71-2.6-3.45-3.81-7.24-3.81-11.93 0-1.95.35-4.11 1.05-6.6.62-2.19 1.5-4.54 2.69-7.17.58-1.29 1.2-2.58 1.83-3.84l.11-.22c.43-.84.85-1.67 1.29-2.49.06-.12.13-.24.2-.36.89-1.36 1.8-2.85 2.87-4.66.16-.29.33-.58.49-.87l.17-.29c.81-1.42 1.59-2.84 2.32-4.23l.33-.63c7.11-13.74 12.23-29.39 14.06-42.94l.05-.38c.18-1.42.68-8.35.68-9.5v-19.6C195.64 34.4 170.24 9 139.02 9h-6.19c-3.83 0-7.65.388-11.37 1.155-3.62.746-7.19 1.86-10.6 3.31-.84.356-1.69.74-2.51 1.137-19.53 9.445-32.14 29.47-32.14 51.02v9.894c0 2.486-2.02 4.5-4.5 4.5-2.49 0-4.5-2.014-4.5-4.5V65.62c0-24.976 14.61-48.182 37.22-59.12.95-.46 1.93-.905 2.91-1.32 3.96-1.68 8.1-2.974 12.3-3.84C123.96.45 128.4 0 132.83 0h6.19c36.18 0 65.62 29.437 65.62 65.62v19.64c0 1.662-.54 8.967-.76 10.66l-.05.417c-1.96 14.537-7.42 31.252-14.98 45.86l-.36.672c-.78 1.49-1.62 3.01-2.48 4.52l-.16.27c-.18.32-.36.64-.55.95-1.09 1.87-2.04 3.41-2.97 4.84-.37.71-.75 1.43-1.11 2.15l-.11.21c-.58 1.15-1.14 2.32-1.67 3.49-1 2.22-1.73 4.16-2.23 5.91-.47 1.66-.71 3.05-.71 4.15 0 2.75.58 4.63 2 6.51.42.56.92 1.12 1.52 1.71.91.9 2.05 1.85 3.48 2.91 2.11 1.57 4.71 3.28 6.99 4.74 1.49.96 3.78 2 6.81 3.09 5.8 2.09 13.94 4.25 24.21 6.42 1.81.38 3.56.74 5.2 1.06.71.14 1.41.27 2.08.4 24.17 1.16 43.06 20.94 43.06 45.18v24.88c0 2.48-2.01 4.5-4.5 4.5"/><path d="M9 261.998h161.05v-35.202c0-11.573-9.41-21.37-20.98-21.838-.22-.01-.44-.035-.66-.077l-1.59-.31c-1.1-.21-2.26-.45-3.46-.7-6.98-1.47-12.58-2.97-16.64-4.43-2.52-.91-4.45-1.8-5.91-2.74-1.66-1.06-3.41-2.21-4.94-3.35-1.2-.89-2.19-1.72-3.02-2.54-.65-.64-1.21-1.27-1.71-1.93-1.87-2.48-2.78-5.32-2.78-8.67 0-1.41.24-2.95.74-4.7.42-1.49 1.02-3.08 1.82-4.86.38-.84.79-1.69 1.21-2.54l.07-.13c.29-.57.57-1.11.85-1.65.06-.12.13-.24.21-.35.55-.85 1.13-1.79 1.81-2.95l.42-.73c.51-.88 1-1.78 1.47-2.69l.22-.4c4.51-8.72 7.77-18.66 8.93-27.25l.03-.26c.11-.85.42-5.18.42-5.92v-12.71c0-19.32-15.72-35.04-35.04-35.04h-4c-2.37 0-4.73.24-7.04.72-2.24.46-4.44 1.15-6.56 2.05-.52.22-1.04.46-1.55.7-12.08 5.85-19.89 18.24-19.89 31.58v12.71c0 .74.31 5.07.43 5.95l.02.18c1.16 8.64 4.42 18.57 8.93 27.3l.22.413c.47.9.97 1.79 1.47 2.67l.42.728c.68 1.17 1.26 2.1 1.81 2.95.08.114.15.23.21.36.84 1.58 1.53 2.994 2.13 4.31.49 1.09.92 2.14 1.27 3.136.87 2.44 1.29 4.546 1.29 6.43 0 1.93-.29 3.645-.88 5.24-1.36 3.635-4.11 6.04-6.63 7.91-1.53 1.145-3.28 2.29-4.94 3.36-3.32 2.13-9.47 4.21-18.83 6.354-2.73.62-5.68 1.24-8.77 1.83-.22.042-.44.07-.66.08-4.88.2-9.62 2.072-13.35 5.29-1.03.89-1.99 1.883-2.85 2.95-1.74 2.18-3.03 4.63-3.84 7.27-.62 2.04-.93 4.17-.93 6.32V262zm165.55 9H4.5c-2.49 0-4.5-2.015-4.5-4.5v-39.702c0-3.042.44-6.05 1.32-8.944 1.14-3.74 2.97-7.192 5.42-10.265 1.2-1.502 2.55-2.9 4-4.154 5.18-4.46 11.74-7.098 18.51-7.45 2.87-.555 5.61-1.13 8.14-1.71 10.76-2.47 14.63-4.29 15.97-5.154 1.45-.94 3.12-2.03 4.43-3.01 2.08-1.55 3.15-2.7 3.57-3.84.22-.57.32-1.26.32-2.1 0-.57-.13-1.63-.77-3.42-.27-.76-.6-1.59-.99-2.44-.5-1.1-1.09-2.3-1.8-3.65-.59-.92-1.2-1.92-1.91-3.13-.12-.21-.25-.42-.37-.64l-.1-.19c-.56-.98-1.1-1.97-1.63-2.97l-.24-.47c-4.97-9.6-8.56-20.6-9.85-30.17l-.03-.21c-.14-1.11-.51-5.95-.51-7.18V113c0-16.764 9.8-32.34 24.98-39.68.64-.31 1.29-.604 1.94-.884 2.66-1.13 5.44-2 8.27-2.58 2.9-.6 5.87-.9 8.85-.9h4c24.29 0 44.04 19.76 44.04 44.04V125.7c0 1.228-.36 6.06-.5 7.1l-.03.278c-1.3 9.58-4.89 20.58-9.86 30.19l-.23.44c-.53 1.01-1.08 2.002-1.64 2.98l-.46.812c-.71 1.21-1.33 2.21-1.92 3.13-.23.44-.46.872-.68 1.31l-.07.147c-.37.73-.72 1.46-1.05 2.19-.61 1.35-1.07 2.56-1.36 3.61-.26.93-.4 1.69-.4 2.25 0 1.63.39 2.48.97 3.25.23.3.5.6.83.93.54.53 1.22 1.1 2.09 1.74 1.32.98 2.98 2.07 4.43 3 .6.38 1.79 1.01 4.09 1.84 3.63 1.31 8.97 2.726 15.45 4.1 1.16.244 2.29.47 3.35.68l1.22.24c16.44.85 29.26 14.32 29.26 30.816v39.703c0 2.48-2.02 4.5-4.5 4.5z"/></g></symbol><symbol viewBox="0 0 117 117" id="shape-team-small"><title>Slice 1</title><g fill-rule="evenodd"><path d="M3.25 116.468c-1.8 0-3.25-1.455-3.25-3.25V102.77c0-2.005.29-3.99.87-5.9.76-2.468 1.96-4.747 3.58-6.774.79-.99 1.68-1.912 2.64-2.74 3.41-2.938 7.73-4.678 12.19-4.916 1.85-.358 3.62-.73 5.25-1.104.73-.167 1.47-.343 2.2-.527 1.74-.44 1.06-.12 1.5 1.62.43 1.74-.51.63-2.25 1.07-.77.19-3.885 1.63-4.665 1.81-1.77.4-2.333 2.51-4.343 2.89-3.09.13-8.102.92-10.472 2.96-.65.57-1.51 3.53-2.05 4.2-1.11 1.38-.69 5.71-1.2 7.39-.39 1.29 0 4.74 0 6.11l3.25 1.09h103.9v-7.2c0-7.34-5.97-13.55-13.3-13.85-.16-.01-.33-.03-.48-.06l-1.04-.2c-.71-.14-1.47-.3-2.25-.46-4.54-.96-8.19-1.94-10.85-2.89-1.65-.6-2.93-1.19-3.89-1.81-1.03-.66-2.22-1.44-3.23-2.2-.79-.59-1.45-1.14-2-1.69-.43-.43-.8-.85-1.14-1.29-1.26-1.68-1.87-3.58-1.87-5.83 0-.95.16-1.98.49-3.15.28-.99.67-2.04 1.2-3.2.25-.56.52-1.11.8-1.67.22-.46.41-.81.59-1.16.56-.88.94-1.51 1.32-2.16l.27-.47c.33-.57.65-1.15.95-1.74 3.06-5.89 5.16-12.3 5.9-17.84.09-.7.3-3.49.3-3.97V28.9c0-12.36-10.06-22.42-22.42-22.42h-2.6c-1.52 0-3.03.155-4.5.46-1.44.294-2.85.734-4.2 1.31-.33.14-.66.29-.99.45-7.74 3.74-12.73 11.67-12.73 20.203 0 .73.2 3.52.27 4.07.05.39.09.63.13.87.27 1.775-.95 3.434-2.72 3.707-1.78.276-3.44-.942-3.71-2.716l-.12-.84c-.12-.897-.35-4.017-.35-4.837 0-11.256 6.43-21.483 16.4-26.303.42-.2.85-.395 1.28-.58 1.75-.75 3.57-1.32 5.43-1.7C53.24.2 55.19 0 57.15 0h2.6c15.94 0 28.92 12.974 28.92 28.92v8.25c0 .818-.24 3.937-.33 4.653-.87 6.435-3.21 13.617-6.46 19.885-.5.947-.85 1.594-1.22 2.234l-.3.527c-.41.69-.82 1.37-1.25 2.03-.14.27-.29.55-.43.83-.28.56-.5 1.03-.72 1.5-.38.86-.68 1.63-.86 2.29-.21.71-.25 1.14-.25 1.37 0 .97.22 1.45.56 1.91.14.18.31.37.51.56.34.33.77.69 1.32 1.1.85.63 1.93 1.34 2.86 1.94.37.24 1.12.63 2.59 1.16 2.34.84 5.79 1.76 9.99 2.64.75.16 1.48.31 2.16.44l.78.15c10.83.57 19.28 9.45 19.28 20.33v10.45c0 1.79-1.46 3.25-3.25 3.25H3.25z"/><path d="M71.42 111.997V98.443c0-4.195-3.37-7.747-7.5-7.917-.17-.003-.33-.02-.49-.052l-.67-.132c-.47-.094-.96-.197-1.47-.306-2.99-.643-5.41-1.295-7.17-1.94-1.16-.422-2.06-.85-2.75-1.303-.72-.466-1.48-.97-2.16-1.483-.55-.415-1.01-.81-1.41-1.206-.32-.32-.6-.638-.85-.972-.97-1.307-1.44-2.787-1.44-4.522 0-.73.12-1.508.36-2.377.2-.703.47-1.44.84-2.26.17-.375.34-.755.53-1.135.15-.304.27-.54.4-.776.04-.09.09-.177.15-.263.25-.39.49-.8.73-1.2l.13-.24c.24-.43.44-.79.63-1.17 1.91-3.74 3.23-7.81 3.7-11.31.05-.42.17-2.1.18-2.46v-5.39c0-7.47-6-13.54-13.36-13.54h-1.68c-.9 0-1.81.09-2.68.27-.86.17-1.7.44-2.5.79-.2.08-.4.17-.59.27-4.61 2.26-7.59 7.05-7.59 12.2v5.4c.01.34.13 2.03.17 2.35.48 3.59 1.79 7.66 3.62 11.24.28.53.48.9.68 1.26l.17.3c.24.4.48.81.73 1.2.05.08.1.17.15.26.33.63.65 1.27.93 1.91.22.48.41.97.58 1.44.41 1.18.62 2.23.62 3.19 0 .99-.15 1.87-.46 2.71-.7 1.89-2.1 3.13-3.25 3.99-.68.51-1.47 1.04-2.15 1.48-.97.63-2.9 1.62-8.34 2.89-1.16.27-2.41.53-3.73.79-.16.03-.32.05-.48.05-1.77.07-3.42.73-4.77 1.92-.37.32-.72.68-1.02 1.07-.63.79-1.09 1.68-1.38 2.64-.22.74-.33 1.51-.33 2.29V112l64.92-.005zm-66.44 1.396c-1.8 0-4.98 1.794-4.98 0v-15.76c0-1.41.21-2.807.61-4.152.53-1.73 1.38-3.33 2.52-4.76.56-.69 1.18-1.34 1.85-1.92 2.38-2.04 5.39-3.26 8.5-3.45.97-.19 2.11-.42 3.28-.69 4.6-1.05 5.97-1.78 6.28-1.98.59-.38 1.26-.82 1.78-1.21.83-.62 1-.9 1.04-.99.03-.08.05-.22.05-.4 0-.05-.02-.32-.25-.98-.11-.3-.23-.61-.37-.92-.21-.46-.45-.94-.69-1.4-.28-.43-.55-.87-.81-1.31l-.15-.27c-.29-.51-.53-.94-.76-1.38-2.26-4.36-3.82-9.15-4.38-13.32-.08-.61-.24-2.7-.24-3.28v-5.34c0-7.56 4.42-14.58 11.26-17.89.29-.14.58-.27.88-.39 1.2-.51 2.45-.9 3.73-1.16 1.3-.27 2.65-.4 3.99-.4h1.68c10.95 0 19.86 8.91 19.86 19.86v5.33c0 .58-.16 2.66-.23 3.16-.57 4.29-2.13 9.08-4.29 13.24-.33.63-.57 1.06-.81 1.49l-.21.36c-.26.44-.52.88-.8 1.31-.08.16-.16.32-.25.48-.17.35-.31.64-.44.93-.23.51-.4.95-.5 1.33-.12.4-.12.56-.12.58 0 .37.06.45.14.55.06.08.13.16.21.24.18.18.42.38.73.61.53.39 1.2.83 1.79 1.21.13.08.52.307 1.44.64 1.47.53 3.65 1.108 6.31 1.67.49.1.95.198 1.39.285l.42.08c7.58.44 13.48 6.67 13.48 14.296v15.76c0 1.8-1.46 1.25-3.25 1.25l-69.69-1.3z"/></g></symbol><symbol viewBox="0 0 116 117" id="shape-tick-circle-small"><title>tick-circle-small</title><path d="M47.83 81.38c-.86 0-1.69-.34-2.3-.95l-18.1-18.102c-1.27-1.27-1.27-3.328 0-4.596 1.27-1.27 3.33-1.27 4.6 0l15.8 15.803L83.89 37.47c1.27-1.27 3.33-1.27 4.6 0 1.27 1.268 1.27 3.327 0 4.595L50.13 80.43c-.61.61-1.44.95-2.3.95"/><path d="M57.96 7.23C29.7 7.23 6.72 30.216 6.72 58.472c0 28.256 22.98 51.244 51.24 51.244S109.2 86.73 109.2 58.473 86.22 7.23 57.96 7.23zm0 108.987C26.12 116.217.22 90.313.22 58.473S26.12.73 57.96.73c31.84 0 57.74 25.903 57.74 57.743 0 31.84-25.9 57.744-57.74 57.744z"/></symbol><symbol viewBox="0 0 92 106" id="shape-trash-can"><title>Slice 1</title><path d="M.3 9.276h31.82V.996h27.19v8.28h31.823v12.53H.3V9.276zM8.608 27.12H84.36l-9.003 78.535H17.612L8.608 27.12zm63.965 8.73h-7.54l-4.41 63.76h5.748l6.21-63.76zm-22.713.054h-7.54l.99 63.75h5.747l.803-63.75zm-22.713.504h-7.54l6.39 63.63h5.747l-4.597-63.63z" fill-rule="evenodd"/></symbol><symbol viewBox="0 0 17 27" id="shape-twitter"><title>Artboard 1</title><path d="M10.096 5.87V0H5.89c-.096.217-.146.475-.146.74-.045.126-.095.217-.095.347C5.214 3.26 3.96 4.782 1.832 5.61c-.628.26-1.206.3-1.834.26v4.735h3.09c.05 6.656.05 10.09.05 10.264v.392c.39 2.91 2.075 4.65 5.07 5.302 1.205.306 2.507.435 3.814.435 1.688-.044 3.33-.305 4.975-.784V20.65c-.965.26-1.84.478-2.61.693-1.496.396-2.752.134-3.77-.735-.094-.132-.24-.307-.29-.48-.14-.696-.234-1.433-.234-2.132v-7.392H16.8V5.87h-6.705z" fill-rule="evenodd"/></symbol><symbol viewBox="-121.5 0 460 460" id="shape-up-small"><title>Fill 704 + Fill 705</title><g transform="translate(-6882 -5632)"><mask maskUnits="userSpaceOnUse" x="6882.6" y="5789" width="215.7" height="122" id="up-small-b"><path d="M8978.9 14394.9V157.3H.3v14237.6h8978.6z" filter="url(#up-small-a)"/></mask><g mask="url(#up-small-b)"><path d="M6990.5 5791.5l105.4 117h-210.8l105.4-117"/><path d="M6890.7 5906h199.5l-99.7-110.8-99.8 110.8zm205.2 5h-210.8c-1 0-1.9-.6-2.3-1.5-.4-.9-.2-2 .4-2.7l105.4-117c1-1 2.8-1 3.7 0l105.2 116.9c.5.5.8 1.1.8 1.9.1 1.3-1.1 2.4-2.4 2.4z"/></g></g></symbol><symbol viewBox="0 0 116 117" id="shape-warning-circle-small"><title>Slice 1</title><g fill-rule="evenodd"><path d="M57.96 7.23C29.7 7.23 6.72 30.216 6.72 58.472c0 28.256 22.98 51.244 51.24 51.244S109.2 86.73 109.2 58.473 86.22 7.23 57.96 7.23zm0 108.987C26.12 116.217.22 90.313.22 58.473S26.12.73 57.96.73c31.84 0 57.74 25.903 57.74 57.743 0 31.84-25.9 57.744-57.74 57.744z"/><path d="M53.023 64.195l-1.25-18.71c-.234-3.646-.35-6.264-.35-7.852 0-2.162.565-3.848 1.698-5.06 1.14-1.21 2.63-1.815 4.48-1.815 2.24 0 3.74.775 4.49 2.324.76 1.55 1.14 3.783 1.14 6.7 0 1.718-.09 3.463-.27 5.234l-1.68 19.257c-.18 2.292-.57 4.05-1.17 5.274-.6 1.224-1.59 1.836-2.97 1.836-1.4 0-2.38-.593-2.93-1.778-.54-1.184-.93-2.988-1.17-5.41zm4.336 25.703c-1.59 0-2.98-.514-4.16-1.543-1.19-1.028-1.78-2.467-1.78-4.316 0-1.62.56-2.99 1.7-4.13s2.52-1.7 4.16-1.7c1.64 0 3.04.56 4.2 1.7 1.16 1.13 1.74 2.5 1.74 4.12 0 1.82-.59 3.25-1.76 4.3-1.17 1.04-2.54 1.56-4.1 1.56z"/></g></symbol></svg>