<svg width="150" height="58" viewBox="0 0 150 58" xmlns="http://www.w3.org/2000/svg"><title>Slice 1</title><g fill="#FFF" fill-rule="evenodd"><path d="M4.7 42.757H2.263l.13.13v2.087l-.13.13h2.43c.943 0 1.34-.49 1.34-1.174 0-.72-.397-1.173-1.33-1.173m-.01 3.565h-2.43l.13.13v2.57h-1.34v-7.484h3.65c1.71 0 2.697.997 2.697 2.392 0 1.34-.98 2.392-2.708 2.392M13.627 46.018l-.13-.12-.98-2.098-.183-.62h-.02l-.21.62-.98 2.097-.13.12h2.633zm2.8 3.002h-1.47l-.776-1.663.075-.12h-3.88l.074.12-.777 1.663h-1.47l3.493-7.483h1.238l3.492 7.483zM21.158 42.757h-2.3l.13.128v1.876l-.13.14h2.2c.997 0 1.477-.472 1.477-1.063 0-.774-.527-1.08-1.377-1.08m3.483 6.263h-1.505l-.997-1.977c-.314-.638-.795-.933-1.7-.933h-1.58l.13.13v2.78h-1.34v-7.483h3.51c1.45 0 2.744.74 2.744 2.3 0 .85-.628 1.543-1.32 1.857v.02c.258.1.58.405.784.793l1.275 2.513M32.827 49.02h-1.94l-3.695-3.78 3.612-3.694h1.903l-3.742 3.695v.02l3.862 3.76zm-7.057-7.483h1.34v7.483h-1.34v-7.483zM37.022 49.112c-1.237 0-2.52-.37-3.482-1.32l.96-.952c.915.795 1.6 1.054 2.486 1.054 1.366 0 1.885-.482 1.885-.953 0-.322-.295-.72-1.274-.96-.167-.045-1.22-.304-1.386-.35-1.35-.36-2.44-.85-2.44-2.06 0-1.136 1.054-2.126 3.16-2.126 1.256 0 2.3.416 3.13 1.257l-.958.96c-.573-.654-1.25-.996-2.163-.996-1.377 0-1.802.5-1.802.868 0 .352.34.592 1.645.933.156.047 1.025.268 1.2.314 1.543.378 2.255 1.155 2.255 2.107 0 1.144-.933 2.225-3.216 2.225M41.83 41.537h1.338v7.483h-1.34v-7.483zM48.093 42.757h-1.756l.13.128v4.786l-.13.13h1.802c2.022 0 2.345-1.108 2.345-2.52 0-1.406-.332-2.523-2.392-2.523m.138 6.263h-3.103v-7.483h3.058c3.123 0 3.667 2.023 3.667 3.742 0 1.726-.526 3.74-3.62 3.74M59.4 49.02h-5.958v-7.483h5.96v1.22h-4.75l.13.128v1.654l-.13.13h4.306v1.218h-4.306l.13.13v1.653l-.13.13h4.75v1.22M67.663 42.664c-1.683 0-2.375 1.136-2.375 2.66 0 1.48.692 2.57 2.375 2.57.304 0 .59-.038.84-.112l.185.02-.95-.953.81-.805 1.082 1.08-.01-.156c.278-.435.408-1.008.408-1.646 0-1.477-.676-2.66-2.365-2.66m3.852 6.356l-.804.804-1.127-1.127c-.535.267-1.18.415-1.93.415-2.448 0-3.732-1.552-3.732-3.788 0-2.235 1.285-3.88 3.733-3.88 2.467 0 3.74 1.636 3.74 3.88 0 1.08-.303 2.005-.904 2.67l1.025 1.026M79.748 45.574c0 2.254-1.082 3.538-3.4 3.538-2.32 0-3.41-1.266-3.41-3.538v-4.037h1.34v4.028c0 1.506.546 2.328 2.07 2.328 1.497 0 2.06-.822 2.06-2.328v-4.028h1.34v4.037M86.345 46.018l-.13-.12-.98-2.098-.183-.62h-.02l-.21.62-.98 2.097-.13.12h2.633zm2.8 3.002h-1.47l-.776-1.663.074-.12h-3.88l.073.12-.775 1.663h-1.47l3.493-7.483h1.237l3.493 7.483zM93.876 42.757h-2.3l.13.128v1.876l-.13.14h2.198c1 0 1.48-.472 1.48-1.063 0-.774-.528-1.08-1.378-1.08m3.483 6.263h-1.507l-.998-1.977c-.313-.638-.794-.933-1.7-.933h-1.58l.13.13v2.78h-1.34v-7.483h3.51c1.452 0 2.745.74 2.745 2.3 0 .85-.628 1.543-1.32 1.857v.02c.258.1.58.405.784.793l1.275 2.513M101.998 42.757h-2.3l.13.128v1.876l-.13.14h2.198c.998 0 1.48-.472 1.48-1.063 0-.774-.528-1.08-1.378-1.08m3.483 6.263h-1.505l-.998-1.977c-.313-.638-.794-.933-1.7-.933h-1.58l.13.13v2.78h-1.34v-7.483h3.51c1.452 0 2.745.74 2.745 2.3 0 .85-.628 1.543-1.32 1.857v.02c.258.1.58.405.784.793l1.275 2.513M106.656 41.537h1.34v7.483h-1.34v-7.483zM115.913 49.02h-5.96v-7.483h5.96v1.22h-4.75l.13.128v1.654l-.13.13h4.307v1.218h-4.306l.13.13v1.653l-.13.13h4.75v1.22M120.755 49.112c-1.238 0-2.522-.37-3.483-1.32l.96-.952c.916.795 1.6 1.054 2.486 1.054 1.367 0 1.885-.482 1.885-.953 0-.322-.296-.72-1.275-.96-.167-.045-1.22-.304-1.386-.35-1.35-.36-2.44-.85-2.44-2.06 0-1.136 1.054-2.126 3.16-2.126 1.257 0 2.3.416 3.132 1.257l-.96.96c-.573-.654-1.248-.996-2.162-.996-1.377 0-1.802.5-1.802.868 0 .352.342.592 1.645.933.157.047 1.025.268 1.2.314 1.544.378 2.255 1.155 2.255 2.107 0 1.144-.933 2.225-3.215 2.225M134.153 49.02h-5.524v-7.483h1.338v6.134l-.13.13h4.315v1.22M141.24 42.757h-2.66l.074.13v6.133h-1.34v-6.134l.074-.13h-2.66V41.54h6.512v1.22M145.473 42.757h-1.756l.13.128v4.786l-.13.13h1.802c2.022 0 2.345-1.108 2.345-2.52 0-1.406-.332-2.523-2.392-2.523m.138 6.263h-3.103v-7.483h3.058c3.122 0 3.666 2.023 3.666 3.742 0 1.726-.524 3.74-3.62 3.74M23.318 53.085H21.33l.042.082v4.69h-.82v-4.69l.048-.082h-1.995v-.758h4.713v.758M28.18 57.858h-.8V55.25c0-.58-.183-1.044-1.112-1.044-.697 0-1.236.396-1.236 1.133v2.518h-.8v-5.735h.8v1.898h.014c.293-.334.812-.532 1.317-.532 1.216 0 1.817.682 1.817 1.66v2.71M32.783 55.36l-.08-.083c-.124-.655-.534-1.08-1.272-1.08-.757 0-1.146.445-1.283 1.08l-.088.082h2.723zm.73.696h-3.46l.08.082c.124.67.554 1.08 1.333 1.08.45 0 .826-.165 1.167-.487l.547.548c-.485.444-1.06.65-1.714.65-1.482 0-2.165-.95-2.165-2.186 0-1.305.78-2.254 2.13-2.254 1.43 0 2.105.97 2.105 2.254 0 .102-.007.205-.02.314zM41.682 57.858h-.82v-2.3l.083-.082h-3.237l.08.082v2.3h-.818v-5.53h.82v2.308l-.082.082h3.237l-.082-.082v-2.308h.82v5.53M44.954 54.205c-.93 0-1.318.642-1.318 1.503 0 .846.396 1.502 1.318 1.502.93 0 1.318-.65 1.318-1.502 0-.854-.396-1.503-1.318-1.503m0 3.722c-1.42 0-2.117-.95-2.117-2.22 0-1.27.704-2.22 2.11-2.22 1.42 0 2.124.937 2.124 2.22 0 1.264-.716 2.22-2.116 2.22M54.057 57.858h-.8v-2.382c0-.772-.095-1.27-.797-1.27-.615 0-.923.504-.916 1.078v2.574h-.806v-2.54c0-.675-.137-1.112-.792-1.112-.526 0-.915.45-.915 1.085v2.568h-.805v-4.3h.806v.428h.008c.24-.3.65-.498 1.058-.498.547 0 .99.307 1.195.718h.015c.26-.41.737-.718 1.263-.718 1.004 0 1.496.65 1.496 1.83l-.007 2.54M58.668 55.36l-.083-.083c-.123-.655-.53-1.08-1.27-1.08-.757 0-1.147.445-1.283 1.08l-.09.082h2.726zm.73.696h-3.462l.083.082c.12.67.552 1.08 1.33 1.08.45 0 .826-.165 1.168-.487l.546.548c-.485.444-1.06.65-1.714.65-1.482 0-2.165-.95-2.165-2.186 0-1.305.778-2.254 2.13-2.254 1.428 0 2.103.97 2.103 2.254 0 .102-.006.205-.02.314zM64.732 54.205c-.93 0-1.317.642-1.317 1.503 0 .846.396 1.502 1.317 1.502.93 0 1.318-.65 1.318-1.502 0-.854-.396-1.503-1.318-1.503m0 3.722c-1.42 0-2.117-.95-2.117-2.22 0-1.27.704-2.22 2.11-2.22 1.42 0 2.125.937 2.125 2.22 0 1.264-.718 2.22-2.118 2.22M70.203 54.246h-1.338l.04.082v3.53h-.798v-3.53l.04-.082h-.553v-.69h.554l-.04-.082v-.055c.005-.847.524-1.332 1.433-1.332.24 0 .486.04.663.11v.71c-.17-.07-.403-.117-.594-.117-.48 0-.704.26-.704.684l-.04.082 1.337.007v.683M75.837 53.017c-1.31 0-1.837.93-1.837 2.11 0 1.154.533 2.042 1.837 2.042 1.318 0 1.837-.89 1.837-2.043 0-1.147-.52-2.11-1.837-2.11m0 4.91c-1.755 0-2.677-1.134-2.677-2.8s.922-2.868 2.677-2.868c1.762 0 2.677 1.194 2.677 2.867 0 1.666-.95 2.8-2.677 2.8M82.673 55.85c-.074 0-.265-.013-.368-.013-.2 0-.437 0-.683.014-.246.014-.505.048-.73.104-.41.102-.67.293-.67.62 0 .512.62.643 1.05.643.404 0 1.32-.09 1.32-.643v-.64l.08-.083zm.718 2.008h-.8v-.328h-.012c-.368.294-.84.404-1.305.404-.874 0-1.843-.328-1.843-1.36 0-1.345 1.755-1.427 2.84-1.427.11 0 .32.007.403.015l-.082-.082-.005-.082c-.04-.574-.5-.787-1.092-.787-.437 0-.93.098-1.306.412l-.524-.54c.58-.45 1.16-.587 1.83-.587.935 0 1.898.36 1.898 1.59v2.773zM90.582 57.858h-.8v-2.382c0-.772-.095-1.27-.798-1.27-.614 0-.922.504-.915 1.078v2.574h-.807v-2.54c0-.675-.136-1.112-.792-1.112-.525 0-.914.45-.914 1.085v2.568h-.806v-4.3h.806v.428h.007c.24-.3.65-.498 1.058-.498.548 0 .992.307 1.197.718h.013c.26-.41.738-.718 1.263-.718 1.004 0 1.496.65 1.496 1.83l-.008 2.54M94.953 55.85c-.075 0-.266-.013-.37-.013-.197 0-.436 0-.682.014-.244.014-.504.048-.73.104-.41.102-.67.293-.67.62 0 .512.623.643 1.053.643.403 0 1.318-.09 1.318-.643v-.64l.083-.083zm.717 2.008h-.8v-.328h-.013c-.368.294-.84.404-1.304.404-.874 0-1.844-.328-1.844-1.36 0-1.345 1.754-1.427 2.84-1.427.11 0 .32.007.403.015l-.082-.082-.006-.082c-.04-.574-.498-.787-1.092-.787-.438 0-.93.098-1.305.412l-.525-.54c.58-.45 1.16-.587 1.83-.587.935 0 1.898.36 1.898 1.59v2.773zM99.352 54.32H99.1c-.72-.006-1.27.39-1.27 1.415v2.123h-.8v-4.302h.8v.69h.012c.245-.47.76-.738 1.325-.738h.185v.813M104.125 57.858h-.8v-.463h-.012c-.315.34-.78.532-1.29.532-1.257 0-1.79-.662-1.79-1.715v-2.655h.8v2.63c0 .58.17 1.022 1.085 1.022.696 0 1.208-.382 1.208-1.113v-2.54h.8v4.3M110.005 57.927c-.908 0-1.843-.28-2.48-.942l.61-.588c.635.56 1.16.772 1.843.772 1.02 0 1.476-.377 1.476-.807 0-.307-.267-.628-1.012-.82-.116-.033-.895-.23-1.017-.266-1.004-.273-1.74-.635-1.74-1.482 0-.805.722-1.536 2.252-1.536.9 0 1.666.313 2.212.887l-.6.594c-.39-.457-.91-.723-1.613-.723-1.023 0-1.414.382-1.414.75 0 .343.342.54 1.277.793.117.028.765.205.895.24 1.114.28 1.598.846 1.598 1.522 0 .806-.642 1.605-2.288 1.605M116.104 57.415c-.465.355-.847.512-1.304.512-.827 0-1.304-.527-1.304-1.4v-2.2l.047-.08h-.54v-.69h.54l-.047-.082v-.635l.798-.43v1.065l-.04.082h1.352v.69h-1.352l.04.08v2.207c0 .45.212.676.54.676.266 0 .457-.082.737-.327l.534.532M118.822 54.205c-.93 0-1.318.642-1.318 1.503 0 .846.396 1.502 1.318 1.502.93 0 1.318-.65 1.318-1.502 0-.854-.396-1.503-1.318-1.503m0 3.722c-1.42 0-2.117-.95-2.117-2.22 0-1.27.704-2.22 2.11-2.22 1.42 0 2.124.937 2.124 2.22 0 1.264-.718 2.22-2.118 2.22M126.04 57.858h-.798v-2.594c0-.62-.184-1.058-1.113-1.058-.697 0-1.237.38-1.237 1.11v2.542h-.8v-4.3h.8v.463h.014c.293-.328.812-.532 1.317-.532 1.12 0 1.817.595 1.817 1.653v2.718M130.644 55.36l-.082-.083c-.123-.655-.532-1.08-1.27-1.08-.758 0-1.147.445-1.284 1.08l-.09.082h2.726zm.73.696h-3.46l.08.082c.124.67.553 1.08 1.333 1.08.45 0 .826-.165 1.167-.487l.547.548c-.484.444-1.06.65-1.713.65-1.482 0-2.165-.95-2.165-2.186 0-1.305.777-2.254 2.13-2.254 1.428 0 2.103.97 2.103 2.254 0 .102-.006.205-.02.314zM45.142.48c-1.912 0-3.165 1.514-4.22 1.702-.04.007-.075.01-.102.01-.533 0 1.45-1.317 1.367-1.328C42.07.848 41.95.84 41.833.84c-1.546 0-2.982 1.298-4.047 1.445-.046.007-.085.01-.118.01-.567 0 1.087-.97 1-.985-.032-.006-.066-.01-.102-.01-.74 0-2.57 1.156-3.117 1.28-.514.114-3.247.775-3.595.89-8.83 2.926-15.875 8.4-21.268 14.888-2.232 2.685-3.616 5.09-6.09 9.378-.493.854-3.228 6.24-3.384 7.29h9.33c.105 0 1.453-4.085 3.283-6.94C17.67 21.93 27.923 8.99 40.418 8.99c.088 0 .175 0 .262.003 8.585.124 15.5 3.504 23.622 8.398 12.892 7.768 24.014 13.833 32.5 16.63 3.833 1.26 10.76 2.38 18.03 2.38 5.57 0 11.342-.657 16.076-2.407 13.79-5.097 18.032-11.88 17.925-13.116-.073.052-6.29 6.936-22.046 10.582-3.408.81-6.42 1.226-9.912 1.226-1.47 0-3.027-.075-4.733-.224-5.083-.473-8.186-1.396-8.36-1.44-1.96-.503-4.665-1.438-8.12-2.9-4.56-1.932-8.524-4.138-12.373-6.476-.67-.407-2.525-1.718-3.192-2.127-7.648-4.684-14.735-9.918-23.3-13.632-1.01-.44-4.06-1.574-6.8-2.286-.285-.075-.566-.145-.84-.207-.515-.12.52-.52.023-.61-.013-.003-.026-.004-.04-.004-.1 0-.19.073-.31.144-.117.072-.262.143-.474.143-.07 0-.146-.007-.232-.026-1.232-.26.007-1.016-.023-1.025-.07-.022-.138-.03-.205-.03-.29 0-.55.175-.822.352-.273.178-.558.354-.896.354-.113 0-.232-.02-.36-.065-.465-.187 1.395-1.47 1.335-1.48-.1-.02-.203-.03-.306-.03-1.09 0-2.334.99-3.163 1.162-.545-.51 1.864-1.776 1.79-1.783-.113-.01-.224-.015-.33-.015"/><path d="M27.583 27.876l14.713-14.513 14.662 14.463.283-.287-14.944-14.743L27.3 27.59l.283.286M41.338 34.48h-8.274c-.224 0-.404-.184-.404-.41v-5.137c0-.227.18-.41.404-.41h8.274c.223 0 .404.183.404.41v5.136c0 .226-.18.41-.404.41"/><path d="M41.338 34.48v-.2h-8.274c-.11 0-.203-.093-.203-.21v-5.137c0-.12.095-.21.204-.21h8.274c.11 0 .202.09.202.21v5.136c0 .117-.093.21-.202.21v.4c.337 0 .604-.275.605-.61v-5.137c0-.336-.268-.612-.605-.613h-8.274c-.337 0-.604.277-.606.613v5.136c.002.335.27.61.606.61h8.274v-.2M51.55 30.854h-8.47c-.23 0-.415-.186-.415-.417V25.23c0-.23.186-.417.414-.417h8.47c.228 0 .413.186.413.416v5.207c0 .23-.185.417-.413.417"/><path d="M51.55 30.854v-.2h-8.47c-.118-.002-.214-.096-.214-.217V25.23c0-.122.096-.216.213-.216h8.47c.116 0 .212.094.212.215v5.207c0 .12-.096.215-.212.216v.403c.342 0 .615-.28.615-.62V25.23c0-.34-.273-.62-.615-.62h-8.47c-.343 0-.616.28-.617.62v5.207c0 .34.274.62.616.62h8.47v-.203M51.554 34.48h-8.462c-.226 0-.41-.18-.41-.403v-1.863c0-.222.184-.403.41-.403h8.462c.226 0 .41.182.41.404v1.863c0 .223-.184.402-.41.402"/><path d="M51.554 34.48v-.2h-8.462c-.117-.002-.21-.094-.21-.203v-1.863c0-.108.093-.2.21-.2h8.462c.117 0 .21.092.21.2v1.863c0 .11-.093.2-.21.202v.4c.335 0 .61-.266.61-.603v-1.863c0-.337-.275-.603-.61-.604h-8.462c-.335 0-.61.267-.612.604v1.863c0 .337.277.604.612.604h8.462v-.2M37.347 27.564h-4.452c-.12 0-.216-.185-.216-.415v-1.922c0-.23.095-.416.215-.416h4.452c.12 0 .216.186.216.416v1.92c0 .23-.097.416-.216.416"/><path d="M37.347 27.564v-.2h-4.452v.065l.043-.054-.043-.012v.065l.043-.054-.002-.002c-.017-.015-.058-.11-.056-.225v-1.922c0-.086.02-.164.04-.2l.014-.022.004-.005-.025-.026.015.033.01-.006-.025-.026.015.033-.033-.074v.08l.033-.006-.033-.074v.08h4.452v-.065l-.043.053.043.014v-.066l-.043.053.002.003c.017.015.058.112.055.225v1.92c.002.088-.02.164-.04.202l-.012.02-.004.006.025.027-.016-.033-.01.006.025.027-.016-.033.033.075v-.08l-.033.005.033.075v-.08.4c.083.002.16-.033.21-.077.08-.066.126-.15.16-.24.03-.09.047-.19.047-.3v-1.92c0-.143-.028-.275-.086-.387-.03-.055-.066-.107-.12-.152-.052-.043-.128-.077-.21-.077h-4.453c-.084 0-.16.035-.212.078-.08.067-.125.15-.158.24-.03.092-.048.193-.048.3v1.92c0 .145.03.276.086.388.03.056.067.11.12.152.053.044.128.08.212.078h4.452v-.202M41.597 27.564h-2.984c-.08 0-.144-.185-.144-.415v-1.922c0-.23.063-.416.143-.416h2.984c.08 0 .145.186.145.416v1.92c0 .23-.065.416-.145.416"/><path d="M41.597 27.564v-.2h-2.984v.122l.1-.082c-.003-.004-.036-.04-.1-.04v.122l.1-.082-.003.003.003-.002-.003.002.003-.002c-.013-.018-.044-.13-.043-.256v-1.922c0-.096.016-.182.03-.228l.012-.024.002-.005-.067-.047.045.068.022-.02-.067-.047.045.068-.08-.118v.142l.08-.023-.08-.118v.142h2.985v-.123l-.098.083c0 .004.034.04.097.04v-.122l-.098.083v-.002l-.002.003.002-.002-.002.003c.013.018.044.13.042.255v1.92c0 .097-.015.183-.03.23l-.01.024-.003.004.067.048-.045-.067-.023.02.067.047-.045-.067.077.118v-.14l-.078.022.077.118v-.14.4c.103 0 .176-.058.213-.105.057-.073.083-.147.104-.232.02-.084.03-.178.03-.28v-1.92c0-.134-.02-.256-.055-.36-.018-.054-.04-.102-.08-.15-.037-.047-.11-.106-.213-.107h-2.984c-.103.002-.174.06-.21.107-.06.073-.085.148-.106.233-.02.084-.03.177-.03.278v1.92c.002.136.018.257.054.362.02.052.042.1.082.15.037.047.108.106.21.106h2.985v-.202M.302 55.41H15.61v.403H.3v-.403zM134.038 55.41h15.307v.403h-15.307v-.403z"/></g></svg>