<svg width="17" height="27" viewBox="0 0 17 27" xmlns="http://www.w3.org/2000/svg"><title>Artboard 1</title><path d="M10.096 5.87V0H5.89c-.096.217-.146.475-.146.74-.045.126-.095.217-.095.347C5.214 3.26 3.96 4.782 1.832 5.61c-.628.26-1.206.3-1.834.26v4.735h3.09c.05 6.656.05 10.09.05 10.264v.392c.39 2.91 2.075 4.65 5.07 5.302 1.205.306 2.507.435 3.814.435 1.688-.044 3.33-.305 4.975-.784V20.65c-.965.26-1.84.478-2.61.693-1.496.396-2.752.134-3.77-.735-.094-.132-.24-.307-.29-.48-.14-.696-.234-1.433-.234-2.132v-7.392H16.8V5.87h-6.705z" fill="#FFF" fill-rule="evenodd"/></svg>