<svg style="display: none;"><symbol viewBox="0 0 30 53" id="shape-arrow"><title>Arrow</title><g id="svgstore197c80076ccb8e4bab92af24b42c92d8arrow-Page-1" fill-rule="evenodd" sketch:type="MSPage" fill="none"><g id="svgstore197c80076ccb8e4bab92af24b42c92d8arrow-Artboard-1-1" stroke-linejoin="round" transform="translate(-10 -862)" sketch:type="MSArtboardGroup" stroke="#AAACAF" stroke-linecap="round" stroke-width="5.2"><path id="svgstore197c80076ccb8e4bab92af24b42c92d8arrow-arrow" sketch:type="MSShapeGroup" d="m14.272 865l22.898 24.63-24.17 21.85"/></g></g></symbol><symbol viewBox="0 0 13 8" id="shape-down-arrow"><title>open-nav</title>  <description>Created with Sketch (http://www.bohemiancoding.com/sketch)</description>  <g id="svgstoref678a3cd10ede280950167536f26c9f6Page-1" stroke="none" stroke-width="1" fill="none" fill-rule="evenodd" sketch:type="MSPage"> <path d="M12.5859525,2.49999225 C12.5859525,2.23436693 12.4765774,1.97655413 12.2968897,1.7890539 L11.7109515,1.20311571 C11.5234512,1.02342799 11.2656384,0.914052861 11.0000131,0.914052861 C10.7343878,0.914052861 10.476575,1.02342799 10.2968873,1.20311571 L6.50000775,4.99999523 L2.70312822,1.20311571 C2.52344051,1.02342799 2.2656277,0.914052861 2.00000238,0.914052861 C1.73437707,0.914052861 1.47656426,1.02342799 1.28906404,1.20311571 L0.710938348,1.7890539 C0.523438124,1.97655413 0.414062994,2.23436693 0.414062994,2.49999225 C0.414062994,2.76561757 0.523438124,3.02343038 0.710938348,3.20311809 L5.79688191,8.28906165 C5.97656962,8.47656188 6.23438243,8.58593701 6.50000775,8.58593701 C6.76563307,8.58593701 7.02344587,8.47656188 7.2109461,8.28906165 L12.2968897,3.20311809 C12.4765774,3.02343038 12.5859525,2.76561757 12.5859525,2.49999225 L12.5859525,2.49999225 Z" id="svgstoref678a3cd10ede280950167536f26c9f6down" fill="#939598" sketch:type="MSShapeGroup"/> </g> </symbol><symbol viewBox="0 0 14 11" id="shape-nav-trigger"><title>Slice 1</title>  <description>Created with Sketch (http://www.bohemiancoding.com/sketch)</description>  <g id="svgstore6873f763a5afadd4a2c3905b1ba9b39fPage-1" sketch:type="MSPage"> <path d="M1.75000209,9.00001073 L0.250000298,9.00001073 C0.11718764,9.00001073 0,9.11719837 0,9.25001103 L0,10.7500128 C0,10.8828255 0.11718764,11.0000131 0.250000298,11.0000131 L1.75000209,11.0000131 C1.88281474,11.0000131 2.00000238,10.8828255 2.00000238,10.7500128 L2.00000238,9.25001103 C2.00000238,9.11719837 1.88281474,9.00001073 1.75000209,9.00001073 Z M1.75000209,6.00000715 L0.250000298,6.00000715 C0.11718764,6.00000715 0,6.11719479 0,6.25000745 L0,7.75000924 C0,7.8828219 0.11718764,8.00000954 0.250000298,8.00000954 L1.75000209,8.00000954 C1.88281474,8.00000954 2.00000238,7.8828219 2.00000238,7.75000924 L2.00000238,6.25000745 C2.00000238,6.11719479 1.88281474,6.00000715 1.75000209,6.00000715 Z M1.75000209,3.00000358 L0.250000298,3.00000358 C0.11718764,3.00000358 0,3.11719122 0,3.25000387 L0,4.75000566 C0,4.88281832 0.11718764,5.00000596 0.250000298,5.00000596 L1.75000209,5.00000596 C1.88281474,5.00000596 2.00000238,4.88281832 2.00000238,4.75000566 L2.00000238,3.25000387 C2.00000238,3.11719122 1.88281474,3.00000358 1.75000209,3.00000358 Z M13.7500164,9.00001073 L3.25000387,9.00001073 C3.11719122,9.00001073 3.00000358,9.11719837 3.00000358,9.25001103 L3.00000358,10.7500128 C3.00000358,10.8828255 3.11719122,11.0000131 3.25000387,11.0000131 L13.7500164,11.0000131 C13.882829,11.0000131 14.0000167,10.8828255 14.0000167,10.7500128 L14.0000167,9.25001103 C14.0000167,9.11719837 13.882829,9.00001073 13.7500164,9.00001073 Z M1.75000209,0 L0.250000298,0 C0.11718764,0 0,0.11718764 0,0.250000298 L0,1.75000209 C0,1.88281474 0.11718764,2.00000238 0.250000298,2.00000238 L1.75000209,2.00000238 C1.88281474,2.00000238 2.00000238,1.88281474 2.00000238,1.75000209 L2.00000238,0.250000298 C2.00000238,0.11718764 1.88281474,0 1.75000209,0 Z M13.7500164,6.00000715 L3.25000387,6.00000715 C3.11719122,6.00000715 3.00000358,6.11719479 3.00000358,6.25000745 L3.00000358,7.75000924 C3.00000358,7.8828219 3.11719122,8.00000954 3.25000387,8.00000954 L13.7500164,8.00000954 C13.882829,8.00000954 14.0000167,7.8828219 14.0000167,7.75000924 L14.0000167,6.25000745 C14.0000167,6.11719479 13.882829,6.00000715 13.7500164,6.00000715 Z M13.7500164,3.00000358 L3.25000387,3.00000358 C3.11719122,3.00000358 3.00000358,3.11719122 3.00000358,3.25000387 L3.00000358,4.75000566 C3.00000358,4.88281832 3.11719122,5.00000596 3.25000387,5.00000596 L13.7500164,5.00000596 C13.882829,5.00000596 14.0000167,4.88281832 14.0000167,4.75000566 L14.0000167,3.25000387 C14.0000167,3.11719122 13.882829,3.00000358 13.7500164,3.00000358 Z M13.7500164,0 L3.25000387,0 C3.11719122,0 3.00000358,0.11718764 3.00000358,0.250000298 L3.00000358,1.75000209 C3.00000358,1.88281474 3.11719122,2.00000238 3.25000387,2.00000238 L13.7500164,2.00000238 C13.882829,2.00000238 14.0000167,1.88281474 14.0000167,1.75000209 L14.0000167,0.250000298 C14.0000167,0.11718764 13.882829,0 13.7500164,0 Z" id="svgstore6873f763a5afadd4a2c3905b1ba9b39f&#xF03A;" sketch:type="MSShapeGroup"/> </g> </symbol><symbol viewBox="0 0 14 11" id="shape-open-nav"><title>open-nav</title>  <description>Created with Sketch (http://www.bohemiancoding.com/sketch)</description>  <g id="svgstored04585495370a549a02bffb577d5d6b0Page-1" stroke="none" stroke-width="1" fill="none" fill-rule="evenodd" sketch:type="MSPage"> <path d="M13.6818345,4.5 L0.318182197,4.5 C0.149147905,4.5 0,4.61718764 0,4.7500003 L0,6.25000209 C0,6.38281474 0.149147905,6.50000238 0.318182197,6.50000238 L13.6818345,6.50000238 C13.8508688,6.50000238 14.0000167,6.38281474 14.0000167,6.25000209 L14.0000167,4.7500003 C14.0000167,4.61718764 13.8508688,4.5 13.6818345,4.5 Z" id="svgstored04585495370a549a02bffb577d5d6b0&#xF03A;" fill="#939598" sketch:type="MSShapeGroup"/> </g> </symbol></svg>